#N canvas 402 330 480 382 10;
#X declare -path z_syn_abs;
#X obj 100 33 declare -path z_syn_abs;
#X obj -8 7 syn-rain;
#X obj -6 121 *~;
#X obj 15 84 lop~ 10;
#X obj 15 67 tgl 15 0 empty empty empty 17 7 0 10 -262144 -1 -1 0 1
;
#X obj -6 143 outlet~;
#X obj 109 5 inlet;
#X connect 1 0 2 0;
#X connect 2 0 5 0;
#X connect 3 0 2 1;
#X connect 4 0 3 0;
#X connect 6 0 4 0;
