#N canvas 65 87 480 686 10;
#X obj 48 411 dac~;
#X msg 15 116 1;
#X msg 15 137 0;
#X msg 16 159 print;
#X obj 75 238 *~ 0.1;
#X obj 16 239 *~ 0.1;
#X text 80 114 1 starts playback;
#X obj 16 184 readsf~ 2 1e+06;
#X msg 114 160 open 253648__orangefreesounds__retro-music-loop-120-bpm.wav
;
#X obj 15 88 trigger bang bang;
#X obj 15 60 bng 15 250 50 0 empty empty empty 17 7 0 10 -262144 -1
-1;
#X obj 15 -14 bng 15 250 50 0 empty empty empty 17 7 0 10 -262144 -1
-1;
#X text 37 -15 lire un son;
#X obj 163 230 bng 15 250 50 0 empty empty empty 17 7 0 10 -262144
-1 -1;
#X obj 175 256 spigot;
#X obj 176 279 bng 15 250 50 0 empty empty empty 17 7 0 10 -262144
-1 -1;
#X obj 62 14 tgl 15 0 empty empty empty 17 7 0 10 -262144 -1 -1 0 1
;
#X text 83 15 boucler le son;
#X connect 1 0 7 0;
#X connect 2 0 7 0;
#X connect 3 0 7 0;
#X connect 4 0 0 1;
#X connect 5 0 0 0;
#X connect 7 0 5 0;
#X connect 7 1 4 0;
#X connect 7 2 13 0;
#X connect 8 0 7 0;
#X connect 9 0 1 0;
#X connect 9 1 8 0;
#X connect 10 0 9 0;
#X connect 11 0 10 0;
#X connect 13 0 14 0;
#X connect 14 0 15 0;
#X connect 15 0 10 0;
#X connect 16 0 14 1;
