#N canvas 65 87 571 686 10;
#X obj 86 591 dac~;
#N canvas 535 97 480 686 sampler 1;
#X msg 29 240 1;
#X msg 29 261 0;
#X msg 30 283 print;
#X obj 89 362 *~ 0.1;
#X obj 30 363 *~ 0.1;
#X text 94 238 1 starts playback;
#X obj 30 308 readsf~ 2 1e+06;
#X msg 128 284 open 253648__orangefreesounds__retro-music-loop-120-bpm.wav
;
#X text 135 314 1 starts playback;
#X obj 177 354 bng 15 250 50 0 empty empty empty 17 7 0 10 -262144
-1 -1;
#X obj 29 212 trigger bang bang;
#X obj 29 184 bng 15 250 50 0 empty empty empty 17 7 0 10 -262144 -1
-1;
#X obj 189 380 spigot;
#X obj 190 403 bng 15 250 50 0 empty empty empty 17 7 0 10 -262144
-1 -1;
#X obj 76 138 tgl 15 0 empty empty empty 17 7 0 10 -262144 -1 -1 0
1;
#X obj 29 110 bng 15 250 50 0 empty empty empty 17 7 0 10 -262144 -1
-1;
#X text 51 109 lire un son;
#X text 97 139 boucler le son;
#X obj 34 406 outlet~;
#X obj 100 408 outlet~;
#X obj 35 31 inlet;
#X obj 136 82 inlet;
#X obj 170 439 outlet;
#X connect 0 0 6 0;
#X connect 1 0 6 0;
#X connect 2 0 6 0;
#X connect 3 0 19 0;
#X connect 4 0 18 0;
#X connect 6 0 4 0;
#X connect 6 1 3 0;
#X connect 6 2 9 0;
#X connect 7 0 6 0;
#X connect 9 0 12 0;
#X connect 10 0 0 0;
#X connect 10 1 7 0;
#X connect 11 0 10 0;
#X connect 12 0 13 0;
#X connect 13 0 11 0;
#X connect 13 0 22 0;
#X connect 14 0 12 1;
#X connect 15 0 11 0;
#X connect 20 0 15 0;
#X connect 21 0 14 0;
#X restore 78 220 pd sampler;
#X obj 76 138 tgl 15 0 empty empty empty 17 7 0 10 -262144 -1 -1 0
1;
#X obj 29 110 bng 15 250 50 0 empty empty empty 17 7 0 10 -262144 -1
-1;
#X text 51 109 lire un son;
#X text 97 139 boucler le son;
#X text 152 221 sous patch qui contient du code pure-data crée par
nos soins;
#X connect 1 0 0 0;
#X connect 1 1 0 1;
#X connect 2 0 1 1;
#X connect 3 0 1 0;
