#N canvas 65 82 1298 686 16;
#X obj 55 31 noise~;
#X obj 157 237 dac~;
#X obj 56 148 *~ 0.5;
#X obj 113 126 tgl 15 0 empty empty empty 17 7 0 10 -262144 -1 -1 0
1;
#X obj 265 9 noise~;
#X obj 270 180 *~ 0.5;
#X obj 327 158 tgl 15 0 empty empty empty 17 7 0 10 -262144 -1 -1 0
1;
#X obj 270 140 *~;
#X obj 368 40 osc~ 0.5;
#X floatatom 368 6 5 0 0 0 - - -, f 5;
#X obj 369 77 +~ 2;
#X obj 369 109 /~ 2;
#X obj 39 338 noise~;
#X obj 50 427 bp~ 440 5;
#X obj 38 567 *~ 0.5;
#X obj 94 537 tgl 15 0 empty empty empty 17 7 0 10 -262144 -1 -1 0
1;
#X obj 35 603 dac~;
#X obj 156 320 hsl 128 15 0 127 0 0 empty empty empty -2 -8 0 10 -262144
-1 -1 7200 1;
#X obj 153 340 mtof;
#X obj 230 363 hsl 128 15 0 127 0 0 empty empty empty -2 -8 0 10 -262144
-1 -1 4700 1;
#X obj 225 413 + 1;
#X floatatom 229 448 5 0 0 0 - - -, f 5;
#X obj 448 325 noise~;
#X obj 458 511 *~ 0.5;
#X obj 514 481 tgl 15 0 empty empty empty 17 7 0 10 -262144 -1 -1 0
1;
#X obj 455 547 dac~;
#X obj 869 326 noise~;
#X obj 879 512 *~ 0.5;
#X obj 935 482 tgl 15 0 empty empty empty 17 7 0 10 -262144 -1 -1 0
1;
#X obj 876 548 dac~;
#X obj 527 343 hsl 128 15 0 127 0 0 empty empty empty -2 -8 0 10 -262144
-1 -1 4600 1;
#X obj 524 363 mtof;
#X obj 459 414 lop~ 2000;
#X obj 961 335 hsl 128 15 0 127 0 0 empty empty empty -2 -8 0 10 -262144
-1 -1 4500 1;
#X obj 958 355 mtof;
#X obj 880 415 hip~ 2000;
#N canvas 0 50 450 300 (subpatch) 0;
#X array \$0-E01-spectrum 128 float 0;
#X coords 0 0 127 127 257 130 1 0 0;
#X restore 557 785 graph;
#X text 230 578 <-- click to graph;
#N canvas 65 108 611 616 fft 0;
#X obj 19 62 inlet~;
#X obj 85 214 inlet;
#X obj 19 92 rfft~;
#X obj 19 125 *~;
#X obj 50 125 *~;
#X obj 19 155 sqrt~;
#X obj 332 109 block~ 4096 1;
#X obj 19 181 biquad~ 0 0 0 0 1;
#X text 83 93 Fourier series;
#X text 88 146 magnitude;
#X text 86 131 calculate;
#X text 21 3 This subpatch computes the spectrum of the incoming signal
with a (rectangular windowed) FFT. FFTs aren't properly introduced
until much later.;
#X text 83 62 signal to analyze;
#X text 182 166 delay two samples;
#X text 181 182 for better graphing;
#X obj 90 425 samplerate~;
#X obj 90 402 bng 18 250 50 0 empty empty empty 0 -6 0 8 -262144 -1
-1;
#X floatatom 90 472 5 0 0 0 - - -, f 5;
#X obj 90 448 / 256;
#X obj 90 378 loadbang;
#X floatatom 90 541 5 0 0 0 - - -, f 5;
#X obj 98 494 s fundamental;
#X obj 90 517 ftom;
#X text 146 540 <-just out of curiosity \, here's the pitch;
#X text 14 319 At load time \, calculate a good choice of fundamental
frequency for showing spectra: the 16th bin in a 4096-point spectrum
\, so SR*16/4096 or SR/256.;
#X text 135 216 "bang" into this inlet to graph it;
#X obj 85 248 tabwrite~ \$0-E01-spectrum;
#X connect 0 0 2 0;
#X connect 1 0 26 0;
#X connect 2 0 3 0;
#X connect 2 0 3 1;
#X connect 2 1 4 0;
#X connect 2 1 4 1;
#X connect 3 0 5 0;
#X connect 4 0 5 0;
#X connect 5 0 7 0;
#X connect 7 0 26 0;
#X connect 15 0 18 0;
#X connect 16 0 15 0;
#X connect 17 0 21 0;
#X connect 17 0 22 0;
#X connect 18 0 17 0;
#X connect 19 0 16 0;
#X connect 22 0 20 0;
#X restore 147 614 pd fft;
#X obj 207 579 bng 18 250 50 0 empty empty empty 0 -6 0 8 -262144 -1
-1;
#X text 588 918 1;
#X text 622 918 2;
#X text 654 918 3;
#X text 686 918 4;
#X text 719 918 5;
#X text 749 918 6;
#X text 780 918 7;
#X text 556 918 0;
#X text 592 937 -- partial number --;
#X text 626 740 SPECTRUM;
#X text 817 903 0;
#X text 815 782 1;
#X text 816 841 0.5;
#X obj 203 543 metro 5;
#X obj 208 515 tgl 15 0 empty empty empty 17 7 0 10 -262144 -1 -1 1
1;
#X obj 226 387 / 1;
#X obj 55 464 bp~ 440 5;
#X text 647 553 <-- click to graph;
#N canvas 65 98 611 616 fft 0;
#X obj 19 62 inlet~;
#X obj 85 214 inlet;
#X obj 19 92 rfft~;
#X obj 19 125 *~;
#X obj 50 125 *~;
#X obj 19 155 sqrt~;
#X obj 332 109 block~ 4096 1;
#X obj 19 181 biquad~ 0 0 0 0 1;
#X text 83 93 Fourier series;
#X text 88 146 magnitude;
#X text 86 131 calculate;
#X text 21 3 This subpatch computes the spectrum of the incoming signal
with a (rectangular windowed) FFT. FFTs aren't properly introduced
until much later.;
#X text 83 62 signal to analyze;
#X text 182 166 delay two samples;
#X text 181 182 for better graphing;
#X obj 90 425 samplerate~;
#X obj 90 402 bng 18 250 50 0 empty empty empty 0 -6 0 8 -262144 -1
-1;
#X floatatom 90 472 5 0 0 0 - - -, f 5;
#X obj 90 448 / 256;
#X obj 90 378 loadbang;
#X floatatom 90 541 5 0 0 0 - - -, f 5;
#X obj 98 494 s fundamental;
#X obj 90 517 ftom;
#X text 146 540 <-just out of curiosity \, here's the pitch;
#X text 14 319 At load time \, calculate a good choice of fundamental
frequency for showing spectra: the 16th bin in a 4096-point spectrum
\, so SR*16/4096 or SR/256.;
#X text 135 216 "bang" into this inlet to graph it;
#X obj 85 248 tabwrite~ \$0-E01-spectrum;
#X connect 0 0 2 0;
#X connect 1 0 26 0;
#X connect 2 0 3 0;
#X connect 2 0 3 1;
#X connect 2 1 4 0;
#X connect 2 1 4 1;
#X connect 3 0 5 0;
#X connect 4 0 5 0;
#X connect 5 0 7 0;
#X connect 7 0 26 0;
#X connect 15 0 18 0;
#X connect 16 0 15 0;
#X connect 17 0 21 0;
#X connect 17 0 22 0;
#X connect 18 0 17 0;
#X connect 19 0 16 0;
#X connect 22 0 20 0;
#X restore 564 589 pd fft;
#X obj 624 554 bng 18 250 50 0 empty empty empty 0 -6 0 8 -262144 -1
-1;
#X obj 620 518 metro 5;
#X obj 625 490 tgl 15 0 empty empty empty 17 7 0 10 -262144 -1 -1 0
1;
#X text 1087 508 <-- click to graph;
#N canvas 65 98 611 616 fft 0;
#X obj 19 62 inlet~;
#X obj 85 214 inlet;
#X obj 19 92 rfft~;
#X obj 19 125 *~;
#X obj 50 125 *~;
#X obj 19 155 sqrt~;
#X obj 332 109 block~ 4096 1;
#X obj 19 181 biquad~ 0 0 0 0 1;
#X text 83 93 Fourier series;
#X text 88 146 magnitude;
#X text 86 131 calculate;
#X text 21 3 This subpatch computes the spectrum of the incoming signal
with a (rectangular windowed) FFT. FFTs aren't properly introduced
until much later.;
#X text 83 62 signal to analyze;
#X text 182 166 delay two samples;
#X text 181 182 for better graphing;
#X obj 90 425 samplerate~;
#X obj 90 402 bng 18 250 50 0 empty empty empty 0 -6 0 8 -262144 -1
-1;
#X floatatom 90 472 5 0 0 0 - - -, f 5;
#X obj 90 448 / 256;
#X obj 90 378 loadbang;
#X floatatom 90 541 5 0 0 0 - - -, f 5;
#X obj 98 494 s fundamental;
#X obj 90 517 ftom;
#X text 146 540 <-just out of curiosity \, here's the pitch;
#X text 14 319 At load time \, calculate a good choice of fundamental
frequency for showing spectra: the 16th bin in a 4096-point spectrum
\, so SR*16/4096 or SR/256.;
#X text 135 216 "bang" into this inlet to graph it;
#X obj 85 248 tabwrite~ \$0-E01-spectrum;
#X connect 0 0 2 0;
#X connect 1 0 26 0;
#X connect 2 0 3 0;
#X connect 2 0 3 1;
#X connect 2 1 4 0;
#X connect 2 1 4 1;
#X connect 3 0 5 0;
#X connect 4 0 5 0;
#X connect 5 0 7 0;
#X connect 7 0 26 0;
#X connect 15 0 18 0;
#X connect 16 0 15 0;
#X connect 17 0 21 0;
#X connect 17 0 22 0;
#X connect 18 0 17 0;
#X connect 19 0 16 0;
#X connect 22 0 20 0;
#X restore 1004 544 pd fft;
#X obj 1064 509 bng 18 250 50 0 empty empty empty 0 -6 0 8 -262144
-1 -1;
#X obj 1060 473 metro 5;
#X obj 1065 445 tgl 15 0 empty empty empty 17 7 0 10 -262144 -1 -1
1 1;
#X obj 39 685 noise~;
#X obj 38 914 *~ 0.5;
#X obj 94 884 tgl 15 0 empty empty empty 17 7 0 10 -262144 -1 -1 0
1;
#X obj 35 950 dac~;
#X obj 133 669 hsl 128 15 0 127 0 0 empty empty empty -2 -8 0 10 -262144
-1 -1 8500 1;
#X obj 130 689 mtof;
#X obj 230 710 hsl 128 15 0 127 0 0 empty empty empty -2 -8 0 10 -262144
-1 -1 9300 1;
#X obj 225 760 + 1;
#X floatatom 229 795 5 0 0 0 - - -, f 5;
#X text 230 925 <-- click to graph;
#N canvas 65 98 611 616 fft 1;
#X obj 19 62 inlet~;
#X obj 85 214 inlet;
#X obj 19 92 rfft~;
#X obj 19 125 *~;
#X obj 50 125 *~;
#X obj 19 155 sqrt~;
#X obj 332 109 block~ 4096 1;
#X obj 19 181 biquad~ 0 0 0 0 1;
#X text 83 93 Fourier series;
#X text 88 146 magnitude;
#X text 86 131 calculate;
#X text 21 3 This subpatch computes the spectrum of the incoming signal
with a (rectangular windowed) FFT. FFTs aren't properly introduced
until much later.;
#X text 83 62 signal to analyze;
#X text 182 166 delay two samples;
#X text 181 182 for better graphing;
#X obj 90 425 samplerate~;
#X obj 90 402 bng 18 250 50 0 empty empty empty 0 -6 0 8 -262144 -1
-1;
#X floatatom 90 472 5 0 0 0 - - -, f 5;
#X obj 90 448 / 256;
#X obj 90 378 loadbang;
#X floatatom 90 541 5 0 0 0 - - -, f 5;
#X obj 98 494 s fundamental;
#X obj 90 517 ftom;
#X text 146 540 <-just out of curiosity \, here's the pitch;
#X text 14 319 At load time \, calculate a good choice of fundamental
frequency for showing spectra: the 16th bin in a 4096-point spectrum
\, so SR*16/4096 or SR/256.;
#X text 135 216 "bang" into this inlet to graph it;
#X obj 85 248 tabwrite~ \$0-E01-spectrum;
#X connect 0 0 2 0;
#X connect 1 0 26 0;
#X connect 2 0 3 0;
#X connect 2 0 3 1;
#X connect 2 1 4 0;
#X connect 2 1 4 1;
#X connect 3 0 5 0;
#X connect 4 0 5 0;
#X connect 5 0 7 0;
#X connect 7 0 26 0;
#X connect 15 0 18 0;
#X connect 16 0 15 0;
#X connect 17 0 21 0;
#X connect 17 0 22 0;
#X connect 18 0 17 0;
#X connect 19 0 16 0;
#X connect 22 0 20 0;
#X restore 147 961 pd fft;
#X obj 207 926 bng 18 250 50 0 empty empty empty 0 -6 0 8 -262144 -1
-1;
#X obj 203 890 metro 5;
#X obj 208 862 tgl 15 0 empty empty empty 17 7 0 10 -262144 -1 -1 0
1;
#X obj 226 734 / 1;
#X obj 47 777 vcf~ 440 5;
#X obj 96 745 line~;
#X msg 95 719 \$1 10;
#X connect 0 0 2 0;
#X connect 2 0 1 0;
#X connect 2 0 1 1;
#X connect 3 0 2 1;
#X connect 4 0 7 0;
#X connect 5 0 1 0;
#X connect 5 0 1 1;
#X connect 6 0 5 1;
#X connect 7 0 5 0;
#X connect 8 0 10 0;
#X connect 9 0 8 0;
#X connect 10 0 11 0;
#X connect 11 0 7 1;
#X connect 12 0 13 0;
#X connect 13 0 56 0;
#X connect 14 0 16 0;
#X connect 14 0 16 1;
#X connect 15 0 14 1;
#X connect 17 0 18 0;
#X connect 18 0 13 1;
#X connect 18 0 56 1;
#X connect 19 0 55 0;
#X connect 20 0 13 2;
#X connect 20 0 21 0;
#X connect 20 0 56 2;
#X connect 22 0 32 0;
#X connect 23 0 25 0;
#X connect 23 0 25 1;
#X connect 24 0 23 1;
#X connect 26 0 35 0;
#X connect 27 0 29 0;
#X connect 27 0 29 1;
#X connect 28 0 27 1;
#X connect 30 0 31 0;
#X connect 31 0 32 1;
#X connect 32 0 23 0;
#X connect 32 0 58 0;
#X connect 33 0 34 0;
#X connect 34 0 35 1;
#X connect 35 0 27 0;
#X connect 35 0 63 0;
#X connect 39 0 38 1;
#X connect 53 0 39 0;
#X connect 54 0 53 0;
#X connect 55 0 20 0;
#X connect 56 0 14 0;
#X connect 56 0 38 0;
#X connect 59 0 58 1;
#X connect 60 0 59 0;
#X connect 61 0 60 0;
#X connect 64 0 63 1;
#X connect 65 0 64 0;
#X connect 66 0 65 0;
#X connect 67 0 82 0;
#X connect 68 0 70 0;
#X connect 68 0 70 1;
#X connect 69 0 68 1;
#X connect 71 0 72 0;
#X connect 72 0 84 0;
#X connect 73 0 81 0;
#X connect 74 0 75 0;
#X connect 74 0 82 2;
#X connect 78 0 77 1;
#X connect 79 0 78 0;
#X connect 80 0 79 0;
#X connect 81 0 74 0;
#X connect 82 0 68 0;
#X connect 82 0 77 0;
#X connect 83 0 82 1;
#X connect 84 0 83 0;
