#N canvas 65 376 1301 686 16;
#X obj 41 287 bp~ 440 5;
#X obj 71 237 mtof;
#X obj 145 264 + 1;
#X obj 146 238 / 1;
#X obj 193 293 bp~ 440 5;
#X obj 215 247 mtof;
#X obj 316 273 + 1;
#X obj 317 247 / 1;
#X obj 371 296 bp~ 440 5;
#X obj 390 252 mtof;
#X obj 478 276 + 1;
#X obj 479 250 / 1;
#X obj 547 295 bp~ 440 5;
#X obj 566 251 mtof;
#X obj 654 275 + 1;
#X obj 655 249 / 1;
#X obj 459 46 unpack f f f f f f f f;
#X obj 15 12 adc~;
#X obj 153 475 dac~;
#X floatatom 5 237 5 0 0 0 - - -, f 5;
#X obj 155 394 *~ 3;
#X obj 155 431 clip~ -0.5 0.5;
#X obj 57 144 *~ 1;
#X msg 458 16 60 61 62 63 0 0 0 0;
#X obj 131 39 delwrite~ del 500;
#X obj 125 74 delread~ del 500;
#X connect 0 0 20 0;
#X connect 1 0 0 1;
#X connect 1 0 19 0;
#X connect 2 0 0 2;
#X connect 3 0 2 0;
#X connect 4 0 20 0;
#X connect 5 0 4 1;
#X connect 6 0 4 2;
#X connect 7 0 6 0;
#X connect 8 0 20 0;
#X connect 9 0 8 1;
#X connect 10 0 8 2;
#X connect 11 0 10 0;
#X connect 12 0 20 0;
#X connect 13 0 12 1;
#X connect 14 0 12 2;
#X connect 15 0 14 0;
#X connect 16 0 1 0;
#X connect 16 1 5 0;
#X connect 16 2 9 0;
#X connect 16 3 13 0;
#X connect 16 4 3 0;
#X connect 16 5 7 0;
#X connect 16 6 11 0;
#X connect 16 7 15 0;
#X connect 17 0 24 0;
#X connect 20 0 21 0;
#X connect 21 0 18 0;
#X connect 21 0 18 1;
#X connect 22 0 0 0;
#X connect 22 0 4 0;
#X connect 22 0 8 0;
#X connect 22 0 12 0;
#X connect 23 0 16 0;
#X connect 25 0 22 0;
