#N canvas 544 82 480 686 10;
#X obj 84 74 osc~ 440;
#X obj 87 355 dac~;
#X obj 88 304 *~;
#X obj 177 270 line~;
#X msg 177 237 1 50;
#X obj 178 102 bng 15 250 50 0 empty empty empty 17 7 0 10 -262144
-1 -1;
#X obj 178 122 t b b;
#X obj 207 149 delay 50;
#X obj 233 180 bng 15 250 50 0 empty empty empty 17 7 0 10 -262144
-1 -1;
#X msg 227 239 0 5000;
#X connect 0 0 2 0;
#X connect 2 0 1 0;
#X connect 2 0 1 1;
#X connect 3 0 2 1;
#X connect 4 0 3 0;
#X connect 5 0 6 0;
#X connect 6 0 4 0;
#X connect 6 1 7 0;
#X connect 7 0 9 0;
#X connect 7 0 8 0;
#X connect 9 0 3 0;
