#N canvas 65 82 478 534 10;
#X obj 18 175 osc~ 440;
#X obj 85 461 *~;
#X obj 148 402 line~;
#X obj 149 147 bng 15 250 50 0 empty empty empty 17 7 0 10 -262144
-1 -1;
#X obj 197 259 delay 50;
#X obj 311 47 vsl 15 128 0 1000 0 0 empty empty attack 0 -9 0 10 -262144
-1 -1 0 1;
#X floatatom 316 186 5 0 0 0 - - -, f 5;
#X obj 379 46 vsl 15 128 0 2500 0 0 empty empty decay 0 -9 0 10 -262144
-1 -1 0 1;
#X floatatom 384 185 5 0 0 0 - - -, f 5;
#X msg 148 293 1 \$1;
#X msg 201 325 0 \$1;
#X obj 149 220 t f b f;
#X obj 81 59 mtof;
#X obj 82 97 t f b;
#X obj 50 219 osc~ 440;
#X obj 83 142 * 2;
#X obj 82 500 outlet~;
#X obj 79 24 inlet;
#X obj 37 391 *~ 0.5;
#X obj 149 191 f \$1;
#X obj 202 295 f \$2;
#X connect 0 0 18 0;
#X connect 1 0 16 0;
#X connect 2 0 1 1;
#X connect 3 0 19 0;
#X connect 4 0 20 0;
#X connect 5 0 6 0;
#X connect 5 0 19 1;
#X connect 7 0 8 0;
#X connect 7 0 20 1;
#X connect 9 0 2 0;
#X connect 10 0 2 0;
#X connect 11 0 9 0;
#X connect 11 1 4 0;
#X connect 11 2 4 1;
#X connect 12 0 13 0;
#X connect 13 0 0 0;
#X connect 13 0 15 0;
#X connect 13 1 3 0;
#X connect 14 0 18 0;
#X connect 15 0 14 0;
#X connect 17 0 12 0;
#X connect 18 0 1 0;
#X connect 19 0 11 0;
#X connect 20 0 10 0;
