#N canvas 544 82 480 686 10;
#X obj 167 19 key;
#X floatatom 172 44 5 0 0 0 - - -, f 5;
#X obj 65 330 synth_voice 5 500;
#X obj 143 186 poly 4 1;
#X obj 140 109 t f b;
#X msg 171 139 100;
#X obj 148 214 pack f f f;
#X obj 230 250 print;
#X obj 98 262 route 1 2 3 4;
#X obj 65 309 unpack;
#X obj 131 387 synth_voice 5 500;
#X obj 131 361 unpack;
#X obj 187 441 synth_voice 5 500;
#X obj 187 415 unpack;
#X obj 231 492 synth_voice 5 500;
#X obj 231 466 unpack;
#X obj 185 572 *~ 0.25;
#X obj 187 604 dac~;
#X connect 0 0 1 0;
#X connect 0 0 4 0;
#X connect 2 0 16 0;
#X connect 3 0 6 0;
#X connect 3 1 6 1;
#X connect 3 2 6 2;
#X connect 4 0 3 0;
#X connect 4 1 5 0;
#X connect 5 0 3 1;
#X connect 6 0 7 0;
#X connect 6 0 8 0;
#X connect 8 0 9 0;
#X connect 8 1 11 0;
#X connect 8 2 13 0;
#X connect 8 3 15 0;
#X connect 9 0 2 0;
#X connect 10 0 16 0;
#X connect 11 0 10 0;
#X connect 12 0 16 0;
#X connect 13 0 12 0;
#X connect 14 0 16 0;
#X connect 15 0 14 0;
#X connect 16 0 17 0;
#X connect 16 0 17 1;
