#N canvas 65 54 959 714 10;
#X obj 84 74 osc~ 440;
#X obj 87 355 dac~;
#X obj 88 304 *~;
#X obj 350 57 vsl 15 128 0 1 0 0 empty empty empty 0 -9 0 10 -262144
-1 -1 5900 1;
#X obj 177 270 line~;
#X msg 177 237 \$1 5;
#X connect 0 0 2 0;
#X connect 2 0 1 0;
#X connect 2 0 1 1;
#X connect 3 0 5 0;
#X connect 4 0 2 1;
#X connect 5 0 4 0;
