#N canvas 65 82 645 428 10;
#X obj 52 20 osc~ 440;
#X obj 59 275 dac~;
#X obj 58 213 *~;
#X obj 231 32 vsl 15 128 0 127 0 0 empty empty empty 0 -9 0 10 -262144
-1 -1 0 1;
#X floatatom 248 207 5 0 0 0 - - -, f 5;
#X obj 197 183 / 127;
#X floatatom 204 231 5 0 0 0 - - -, f 5;
#X text 116 24 oscillateur;
#X text 257 51 controle du volume;
#X text 101 277 sortie audio;
#X text 50 -19 On multiplie un signal par une valeur comprise entre
0 et 1 pour modifier le volume;
#X text 258 102 le slider sort une valeur comprise entre 0 et 127;
#X text 248 182 on la divise par 127 pour obtenir une valeur entre
0 et 1;
#X connect 0 0 2 0;
#X connect 2 0 1 0;
#X connect 2 0 1 1;
#X connect 3 0 4 0;
#X connect 3 0 5 0;
#X connect 5 0 6 0;
#X connect 5 0 2 1;
