#N struct 1985-samplewindow float x float y array 1985-windowtemplate
1985-window;
#N struct 1985-window float x float y;
#N canvas 63 81 1301 714 10;
#X obj 429 321 pack f f f;
#X obj 457 253 t f b;
#X obj 513 278 + 1;
#X obj 486 278 f 1;
#X obj 542 278 % 12;
#X obj 486 299 - 6;
#X obj 582 341 * 0.01;
#X obj 644 315 random 24;
#X obj 644 340 - 12;
#X obj 582 363 pack f f f;
#X obj 582 291 t b f b;
#X obj 585 272 hsl 101 15 0 1 0 0 empty empty empty -2 -8 0 10 -262144
-1 -1 0 1;
#X obj 582 315 random 10;
#X obj 736 320 hsl 101 15 0 1 0 0 empty empty empty -2 -8 0 10 -262144
-1 -1 0 1;
#X msg 733 338 0.05 \$1 0;
#X obj 733 358 t l b;
#X obj 733 415 pack f f f;
#X text 732 300 asynchronize by delaying messages;
#X text 428 209 count up pitch;
#X text 579 253 randomize lens size and pitch;
#X obj 432 230 hsl 128 15 0 1 0 0 empty empty empty -2 -8 0 10 -262144
-1 -1 0 1;
#X msg 314 132 0.1 0.35 0;
#X obj 814 375 random 1000;
#X obj 733 394 pipe f f f 100;
#X text 262 27 lens size (0-1) \, start position (0-1) \, and pitch
transposition.;
#X msg 475 522 bang;
#X text 471 503 reset voices;
#X obj 277 687 dac~;
#X msg 267 73 1 0 0;
#X obj 355 180 hsl 101 15 0 1 0 0 empty empty empty -2 -8 0 10 -262144
-1 -1 0 1;
#X obj 277 554 gran_sample_32v;
#X msg 295 100 1 0 -2;
#X text 316 69 original full;
#X text 352 102 original full but down pitched;
#X text 396 132 small piece (10% of the sound duration) \, at 35% sound
duration from start \, original pitch;
#X text 469 178 count up pitch;
#X msg 352 202 0.05 \$1 0;
#X obj 31 32 bng 30 250 50 0 empty empty empty 17 7 0 10 -262144 -1
-1;
#X text 27 8 1-bang to load a sound file;
#X text 262 8 2-send an instruction :;
#X connect 0 0 30 0;
#X connect 1 0 0 1;
#X connect 1 1 3 0;
#X connect 2 0 4 0;
#X connect 3 0 2 0;
#X connect 3 0 5 0;
#X connect 4 0 3 1;
#X connect 5 0 0 2;
#X connect 6 0 9 0;
#X connect 7 0 8 0;
#X connect 8 0 9 2;
#X connect 9 0 30 0;
#X connect 10 0 12 0;
#X connect 10 1 9 1;
#X connect 10 2 7 0;
#X connect 11 0 10 0;
#X connect 12 0 6 0;
#X connect 13 0 14 0;
#X connect 14 0 15 0;
#X connect 15 0 23 0;
#X connect 15 1 22 0;
#X connect 16 0 30 0;
#X connect 20 0 0 0;
#X connect 20 0 1 0;
#X connect 21 0 30 0;
#X connect 22 0 23 3;
#X connect 23 0 16 0;
#X connect 23 1 16 1;
#X connect 23 2 16 2;
#X connect 25 0 30 1;
#X connect 28 0 30 0;
#X connect 29 0 36 0;
#X connect 30 0 27 0;
#X connect 30 0 27 1;
#X connect 31 0 30 0;
#X connect 36 0 30 0;
#X connect 37 0 30 2;
