#N canvas 65 82 884 593 10;
#X obj 148 124 oscparse;
#X obj 147 102 netreceive -u -b;
#X msg 147 47 listen 5000;
#X msg 159 75 listen 0;
#X text 248 74 stop listening;
#X text 249 47 slisten on port 5000;
#X text 286 102 UDP packets \, binary output, f 13;
#X obj 70 357 osc~ 440;
#X obj 96 416 *~;
#X obj 141 393 line~;
#X obj 299 540 dac~;
#X obj 292 417 *~;
#X obj 337 394 line~;
#X obj 488 418 *~;
#X obj 533 395 line~;
#X obj 266 358 osc~ 650;
#X obj 462 359 osc~ 1300;
#X obj 148 198 route test0 test1 test2;
#X obj 148 160 route list;
#X msg 149 363 \$1 10;
#X msg 345 364 \$1 10;
#X msg 541 365 \$1 10;
#X connect 0 0 18 0;
#X connect 1 0 0 0;
#X connect 2 0 1 0;
#X connect 3 0 1 0;
#X connect 7 0 8 0;
#X connect 8 0 10 0;
#X connect 8 0 10 1;
#X connect 9 0 8 1;
#X connect 11 0 10 0;
#X connect 11 0 10 1;
#X connect 12 0 11 1;
#X connect 13 0 10 0;
#X connect 13 0 10 1;
#X connect 14 0 13 1;
#X connect 15 0 11 0;
#X connect 16 0 13 0;
#X connect 17 0 19 0;
#X connect 17 1 20 0;
#X connect 17 2 21 0;
#X connect 18 0 17 0;
#X connect 19 0 9 0;
#X connect 20 0 12 0;
#X connect 21 0 14 0;
