#N canvas 428 208 718 573 10;
#X obj 88 133 noise~;
#X obj 99 538 dac~;
#X obj 88 318 rj/e_lop2;
#X obj 151 256 mtof;
#X floatatom 150 237 5 0 0 2 pitch - -, f 5;
#X floatatom 203 235 5 0 0 2 Q - -, f 5;
#X obj 89 467 rj/e_pan;
#X obj 201 415 / 127;
#X obj 203 400 hsl 64 8 0 127 0 0 empty empty empty -2 -8 0 10 -262144
-1 -1 0 1;
#X text 200 377 L < < < M > > > R;
#X text 61 13 Simulation de vent basique;
#X text 165 131 source audio;
#X text 200 314 un filtre low pass : fréquence de coupure et pente
de la courbe;
#X text 191 461 un panoramique;
#X text 60 43 Simulation de vent basique;
#X connect 0 0 2 0;
#X connect 2 0 6 0;
#X connect 3 0 2 1;
#X connect 4 0 3 0;
#X connect 5 0 2 2;
#X connect 6 0 1 0;
#X connect 6 1 1 1;
#X connect 7 0 6 1;
#X connect 8 0 7 0;
