#N canvas 65 82 651 686 16;
#X obj 78 100 metro 500;
#X obj 74 70 tgl 15 0 empty empty empty 17 7 0 10 -262144 -1 -1 1 1
;
#X obj 80 188 f 0;
#X obj 128 189 + 1;
#X floatatom 200 224 5 0 0 0 - - -, f 5;
#X obj 78 262 % 4;
#X floatatom 182 293 5 0 0 0 - - -, f 5;
#X connect 0 0 2 0;
#X connect 1 0 0 0;
#X connect 2 0 4 0;
#X connect 2 0 3 0;
#X connect 2 0 5 0;
#X connect 3 0 2 1;
#X connect 5 0 6 0;
