#N canvas 65 54 1301 714 16;
#X obj 78 -24 metro 500;
#X obj 74 -54 tgl 15 0 empty empty empty 17 7 0 10 -262144 -1 -1 1
1;
#X obj 80 64 f 0;
#X obj 128 65 + 1;
#X floatatom 200 100 5 0 0 0 - - -, f 5;
#X obj 78 138 % 4;
#X floatatom 182 169 5 0 0 0 - - -, f 5;
#X obj 78 211 sel 0 1 2 3;
#X obj 101 246 bng 15 250 50 0 empty empty empty 17 7 0 10 -262144
-1 -1;
#X obj 126 245 bng 15 250 50 0 empty empty empty 17 7 0 10 -262144
-1 -1;
#X obj 151 247 bng 15 250 50 0 empty empty empty 17 7 0 10 -262144
-1 -1;
#X obj 177 249 bng 15 250 50 0 empty empty empty 17 7 0 10 -262144
-1 -1;
#X obj 321 -13 tgl 15 0 empty empty empty 17 7 0 10 -262144 -1 -1 0
1;
#X obj 45 290 f 0;
#X floatatom 52 325 5 0 0 0 - - -, f 5;
#X obj 46 378 sel 1;
#X obj 71 413 bng 15 250 50 0 empty empty empty 17 7 0 10 -262144 -1
-1;
#X obj 394 -13 tgl 15 0 empty empty empty 17 7 0 10 -262144 -1 -1 0
1;
#X obj 118 290 f 0;
#X floatatom 125 325 5 0 0 0 - - -, f 5;
#X obj 119 378 sel 1;
#X obj 464 -12 tgl 15 0 empty empty empty 17 7 0 10 -262144 -1 -1 0
1;
#X obj 188 291 f 0;
#X floatatom 195 326 5 0 0 0 - - -, f 5;
#X obj 189 379 sel 1;
#X obj 534 -13 tgl 15 0 empty empty empty 17 7 0 10 -262144 -1 -1 0
1;
#X obj 258 290 f 0;
#X floatatom 265 325 5 0 0 0 - - -, f 5;
#X obj 259 378 sel 1;
#X obj 6 499 noise~;
#X obj 12 638 *~;
#X obj 397 677 *~ 1;
#X obj 398 707 dac~;
#X obj 115 589 line~;
#X msg 166 544 0 25;
#X obj 99 467 t b b;
#X obj 166 516 delay 2;
#X msg 101 511 1 2;
#X connect 0 0 2 0;
#X connect 1 0 0 0;
#X connect 2 0 4 0;
#X connect 2 0 3 0;
#X connect 2 0 5 0;
#X connect 3 0 2 1;
#X connect 5 0 6 0;
#X connect 5 0 7 0;
#X connect 7 0 8 0;
#X connect 7 0 13 0;
#X connect 7 1 9 0;
#X connect 7 1 18 0;
#X connect 7 2 10 0;
#X connect 7 2 22 0;
#X connect 7 3 11 0;
#X connect 7 3 26 0;
#X connect 12 0 13 1;
#X connect 13 0 14 0;
#X connect 13 0 15 0;
#X connect 15 0 16 0;
#X connect 15 0 35 0;
#X connect 17 0 18 1;
#X connect 18 0 19 0;
#X connect 18 0 20 0;
#X connect 20 0 35 0;
#X connect 21 0 22 1;
#X connect 22 0 23 0;
#X connect 22 0 24 0;
#X connect 24 0 35 0;
#X connect 25 0 26 1;
#X connect 26 0 27 0;
#X connect 26 0 28 0;
#X connect 28 0 35 0;
#X connect 29 0 30 0;
#X connect 30 0 31 0;
#X connect 31 0 32 0;
#X connect 31 0 32 1;
#X connect 33 0 30 1;
#X connect 34 0 33 0;
#X connect 35 0 37 0;
#X connect 35 1 36 0;
#X connect 36 0 34 0;
#X connect 37 0 33 0;
