#N canvas 65 54 1301 714 16;
#X obj 79 69 metro 500;
#X obj 32 45 tgl 15 0 empty empty empty 17 7 0 10 -262144 -1 -1 1 1
;
#X obj 78 99 f 0;
#X obj 127 97 + 1;
#X floatatom 199 132 5 0 0 0 - - -, f 5;
#X obj 78 138 % 4;
#X floatatom 182 169 5 0 0 0 - - -, f 5;
#X obj 78 211 sel 0 1 2 3;
#X obj 101 246 bng 15 250 50 0 empty empty empty 17 7 0 10 -262144
-1 -1;
#X obj 126 245 bng 15 250 50 0 empty empty empty 17 7 0 10 -262144
-1 -1;
#X obj 151 247 bng 15 250 50 0 empty empty empty 17 7 0 10 -262144
-1 -1;
#X obj 177 249 bng 15 250 50 0 empty empty empty 17 7 0 10 -262144
-1 -1;
#X obj 320 17 tgl 15 0 empty empty empty 17 7 0 10 -262144 -1 -1 1
1;
#X obj 45 290 f 0;
#X floatatom 52 325 5 0 0 0 - - -, f 5;
#X obj 46 378 sel 1;
#X obj 71 413 bng 15 250 50 0 empty empty empty 17 7 0 10 -262144 -1
-1;
#X obj 393 17 tgl 15 0 empty empty empty 17 7 0 10 -262144 -1 -1 1
1;
#X obj 118 290 f 0;
#X floatatom 125 325 5 0 0 0 - - -, f 5;
#X obj 119 378 sel 1;
#X obj 463 18 tgl 15 0 empty empty empty 17 7 0 10 -262144 -1 -1 0
1;
#X obj 188 291 f 0;
#X floatatom 195 326 5 0 0 0 - - -, f 5;
#X obj 189 379 sel 1;
#X obj 533 17 tgl 15 0 empty empty empty 17 7 0 10 -262144 -1 -1 1
1;
#X obj 258 290 f 0;
#X floatatom 265 325 5 0 0 0 - - -, f 5;
#X obj 259 378 sel 1;
#X obj 6 499 noise~;
#X obj 12 638 *~;
#X obj 397 677 *~ 1;
#X obj 397 722 dac~;
#X obj 122 623 line~;
#X msg 173 578 0 25;
#X obj 106 501 t b b;
#X obj 173 550 delay 2;
#X msg 108 545 1 2;
#X obj 651 214 sel 0 1 2 3;
#X obj 618 293 f 0;
#X floatatom 625 328 5 0 0 0 - - -, f 5;
#X obj 691 293 f 0;
#X floatatom 698 328 5 0 0 0 - - -, f 5;
#X obj 761 294 f 0;
#X floatatom 768 329 5 0 0 0 - - -, f 5;
#X obj 831 293 f 0;
#X floatatom 838 328 5 0 0 0 - - -, f 5;
#X obj 852 0 hsl 128 15 0 127 0 0 empty empty empty -2 -8 0 10 -262144
-1 -1 0 1;
#X obj 852 28 hsl 128 15 0 127 0 0 empty empty empty -2 -8 0 10 -262144
-1 -1 0 1;
#X obj 853 56 hsl 128 15 0 127 0 0 empty empty empty -2 -8 0 10 -262144
-1 -1 0 1;
#X obj 855 84 hsl 128 15 0 127 0 0 empty empty empty -2 -8 0 10 -262144
-1 -1 0 1;
#X obj 617 447 mtof;
#X obj 619 479 osc~;
#X floatatom 534 40 5 0 0 0 - - -, f 5;
#X obj 259 413 random 100;
#X obj 259 443 moses 50;
#X obj 284 474 bng 15 250 50 0 empty empty empty 17 7 0 10 -262144
-1 -1;
#X obj 349 508 bng 15 250 50 0 empty empty empty 17 7 0 10 -262144
-1 -1;
#X obj 407 514 bng 15 250 50 0 empty empty empty 17 7 0 10 -262144
-1 -1;
#X obj 343 473 moses 75;
#X floatatom 154 -98 5 0 0 0 - - -, f 5;
#X obj 155 -67 swap 60000;
#X obj 154 -38 /;
#X floatatom 202 -8 5 0 0 0 - - -, f 5;
#X obj 124 -1 t b f;
#X msg 80 37 1;
#X text 218 -97 bpm;
#X connect 0 0 2 0;
#X connect 1 0 0 0;
#X connect 2 0 4 0;
#X connect 2 0 3 0;
#X connect 2 0 5 0;
#X connect 3 0 2 1;
#X connect 5 0 6 0;
#X connect 5 0 7 0;
#X connect 5 0 38 0;
#X connect 7 0 8 0;
#X connect 7 0 13 0;
#X connect 7 1 9 0;
#X connect 7 1 18 0;
#X connect 7 2 10 0;
#X connect 7 2 22 0;
#X connect 7 3 11 0;
#X connect 7 3 26 0;
#X connect 12 0 13 1;
#X connect 13 0 14 0;
#X connect 13 0 15 0;
#X connect 15 0 16 0;
#X connect 15 0 35 0;
#X connect 17 0 18 1;
#X connect 18 0 19 0;
#X connect 18 0 20 0;
#X connect 20 0 35 0;
#X connect 21 0 22 1;
#X connect 22 0 23 0;
#X connect 22 0 24 0;
#X connect 24 0 35 0;
#X connect 25 0 26 1;
#X connect 26 0 27 0;
#X connect 26 0 28 0;
#X connect 28 0 54 0;
#X connect 29 0 30 0;
#X connect 30 0 31 0;
#X connect 31 0 32 0;
#X connect 31 0 32 1;
#X connect 33 0 30 1;
#X connect 34 0 33 0;
#X connect 35 0 37 0;
#X connect 35 1 36 0;
#X connect 36 0 34 0;
#X connect 37 0 33 0;
#X connect 38 0 39 0;
#X connect 38 1 41 0;
#X connect 38 2 43 0;
#X connect 38 3 45 0;
#X connect 39 0 40 0;
#X connect 39 0 51 0;
#X connect 41 0 42 0;
#X connect 41 0 51 0;
#X connect 43 0 44 0;
#X connect 43 0 51 0;
#X connect 45 0 46 0;
#X connect 45 0 51 0;
#X connect 47 0 39 1;
#X connect 48 0 41 1;
#X connect 49 0 43 1;
#X connect 50 0 45 1;
#X connect 51 0 52 0;
#X connect 52 0 31 0;
#X connect 53 0 55 1;
#X connect 54 0 55 0;
#X connect 55 0 35 0;
#X connect 55 0 56 0;
#X connect 55 1 59 0;
#X connect 59 0 57 0;
#X connect 59 1 58 0;
#X connect 60 0 61 0;
#X connect 61 0 62 0;
#X connect 61 1 62 1;
#X connect 62 0 63 0;
#X connect 62 0 64 0;
#X connect 64 0 65 0;
#X connect 64 1 0 1;
#X connect 65 0 0 0;
