#N canvas 252 82 902 413 10;
#N canvas 65 54 1301 714 lightning 0;
#X obj 10 426 noise~;
#X obj 96 478 noise~;
#X obj 81 512 *~;
#X obj 80 562 bp~ 333 4;
#X obj 9 449 lop~ 3;
#X obj 81 535 clip~ -1 1;
#X obj 61 380 line;
#X obj 61 426 + 3;
#X obj 61 405 * 30;
#X obj 10 473 *~ 80;
#X obj 126 377 line;
#X obj 79 586 *~;
#X obj 399 334 noise~;
#X obj 561 454 bp~ 40 3;
#X obj 489 454 bp~ 360 5;
#X obj 489 480 *~ 2.5;
#X obj 302 483 *~ 2;
#X obj 420 481 *~ 1.2;
#X obj 419 454 bp~ 235 7;
#X obj 562 478 *~ 10;
#X obj 478 521 bp~ 2500 0.5;
#X obj 451 360 *~ 10;
#X obj 434 381 *~;
#X obj 435 402 clip~ -0.3 0.3;
#X obj 336 455 bp~ 3600 8;
#X obj 252 453 bp~ 2300 7;
#X obj 562 424 * 80;
#X obj 480 427 * 720;
#X obj 421 430 * 480;
#X obj 284 429 * 4600;
#X obj 198 426 * 3600;
#X obj 367 431 * 7200;
#X obj 557 282 /;
#X msg 550 256 1;
#X obj 556 232 t b f;
#X obj 361 141 del;
#X obj 426 141 del;
#X obj 493 140 del;
#X obj 565 140 del;
#X msg 603 72 bang;
#X obj 639 139 del;
#X obj 712 138 del;
#X obj 795 137 del;
#X obj 878 136 del;
#X obj 655 98 random 70;
#X obj 377 120 + 10;
#X obj 377 100 random 15;
#X obj 442 120 + 10;
#X obj 442 100 random 25;
#X obj 509 119 + 10;
#X obj 509 99 random 50;
#X obj 581 99 random 65;
#X obj 728 97 random 90;
#X obj 811 96 random 120;
#X obj 895 95 random 140;
#X obj 261 364 / 20;
#X obj 530 207 f 10;
#X obj 566 207 - 1;
#X msg 530 180 10;
#X obj 477 574 *~ 0.1;
#X obj 557 304 * 4000;
#X msg 61 353 1 \, 0 600;
#X msg 126 353 1 \, 0 6000;
#X obj 261 386 + 0.01;
#X obj 79 608 *~ 0.9;
#X obj 162 454 bp~ 4700 7;
#X obj 692 528 lop~ 200;
#X obj 691 504 hip~ 5;
#X obj 639 453 noise~;
#X obj 692 581 *~;
#X obj 693 551 *~ 20;
#X obj 758 469 *~;
#X obj 758 498 clip~ 0 0.77;
#X obj 758 413 del 1000;
#X obj 108 321 del 200;
#X obj 478 677 *~ 0.9;
#X obj 424 17 inlet;
#X obj 478 701 outlet~;
#X text 797 667 ajf2006;
#X obj 599 667 switch~;
#X msg 598 645 1;
#X obj 539 677 env~;
#X obj 539 699 > 1;
#X text 61 49 very very frightening ...;
#X text 60 75 Galileo \, Figaro....;
#X obj 690 480 bp~ 80 20;
#X obj 675 269 loadbang;
#N canvas 65 82 450 300 ead~ 0;
#X obj 44 26 inlet;
#X obj 47 52 bang;
#X obj 43 79 f \$1;
#X obj 107 36 inlet;
#X obj 40 109 t f b f;
#X obj 70 151 delay;
#X obj 145 148 inlet;
#X obj 81 191 f \$2;
#X obj 43 257 line~;
#X msg 35 222 1 \$1;
#X msg 80 229 0 \$1;
#X obj 45 286 outlet~;
#X connect 0 0 1 0;
#X connect 1 0 2 0;
#X connect 2 0 4 0;
#X connect 3 0 2 1;
#X connect 4 0 9 0;
#X connect 4 1 5 0;
#X connect 4 2 5 1;
#X connect 5 0 7 0;
#X connect 6 0 7 1;
#X connect 7 0 10 0;
#X connect 8 0 11 0;
#X connect 9 0 8 0;
#X connect 10 0 8 0;
#X restore 631 333 pd ead~ 0 10;
#X msg 666 290 10;
#X msg 694 308 5000;
#X obj 887 352 loadbang;
#N canvas 65 82 450 300 ead~ 0;
#X obj 44 26 inlet;
#X obj 47 52 bang;
#X obj 43 79 f \$1;
#X obj 107 36 inlet;
#X obj 40 109 t f b f;
#X obj 70 151 delay;
#X obj 145 148 inlet;
#X obj 81 191 f \$2;
#X obj 43 257 line~;
#X msg 35 222 1 \$1;
#X msg 80 229 0 \$1;
#X obj 45 286 outlet~;
#X connect 0 0 1 0;
#X connect 1 0 2 0;
#X connect 2 0 4 0;
#X connect 3 0 2 1;
#X connect 4 0 9 0;
#X connect 4 1 5 0;
#X connect 4 2 5 1;
#X connect 5 0 7 0;
#X connect 6 0 7 1;
#X connect 7 0 10 0;
#X connect 8 0 11 0;
#X connect 9 0 8 0;
#X connect 10 0 8 0;
#X restore 843 416 pd ead~ 0 10;
#X msg 878 373 2000;
#X msg 906 391 20000;
#X connect 0 0 4 0;
#X connect 1 0 2 1;
#X connect 2 0 5 0;
#X connect 3 0 11 0;
#X connect 4 0 9 0;
#X connect 5 0 3 0;
#X connect 6 0 8 0;
#X connect 7 0 4 1;
#X connect 8 0 7 0;
#X connect 9 0 2 0;
#X connect 10 0 11 1;
#X connect 11 0 64 0;
#X connect 12 0 22 0;
#X connect 13 0 19 0;
#X connect 14 0 15 0;
#X connect 15 0 20 0;
#X connect 16 0 20 0;
#X connect 17 0 20 0;
#X connect 18 0 17 0;
#X connect 19 0 20 0;
#X connect 20 0 59 0;
#X connect 21 0 22 1;
#X connect 22 0 23 0;
#X connect 23 0 13 0;
#X connect 23 0 14 0;
#X connect 23 0 18 0;
#X connect 23 0 24 0;
#X connect 23 0 25 0;
#X connect 23 0 65 0;
#X connect 24 0 16 0;
#X connect 25 0 16 0;
#X connect 26 0 13 1;
#X connect 27 0 14 1;
#X connect 28 0 18 1;
#X connect 29 0 25 1;
#X connect 30 0 65 1;
#X connect 31 0 24 1;
#X connect 32 0 60 0;
#X connect 33 0 32 0;
#X connect 34 0 33 0;
#X connect 34 0 87 0;
#X connect 34 1 32 1;
#X connect 35 0 36 0;
#X connect 35 0 56 0;
#X connect 36 0 37 0;
#X connect 36 0 56 0;
#X connect 37 0 38 0;
#X connect 37 0 56 0;
#X connect 38 0 40 0;
#X connect 38 0 56 0;
#X connect 39 0 44 0;
#X connect 39 0 35 0;
#X connect 39 0 46 0;
#X connect 39 0 48 0;
#X connect 39 0 50 0;
#X connect 39 0 51 0;
#X connect 39 0 52 0;
#X connect 39 0 53 0;
#X connect 39 0 54 0;
#X connect 39 0 58 0;
#X connect 39 0 73 0;
#X connect 40 0 41 0;
#X connect 40 0 56 0;
#X connect 41 0 42 0;
#X connect 41 0 56 0;
#X connect 42 0 43 0;
#X connect 42 0 56 0;
#X connect 43 0 56 0;
#X connect 44 0 40 1;
#X connect 45 0 35 1;
#X connect 46 0 45 0;
#X connect 47 0 36 1;
#X connect 48 0 47 0;
#X connect 49 0 37 1;
#X connect 50 0 49 0;
#X connect 51 0 38 1;
#X connect 52 0 41 1;
#X connect 53 0 42 1;
#X connect 54 0 43 1;
#X connect 55 0 63 0;
#X connect 56 0 57 0;
#X connect 56 0 55 0;
#X connect 56 0 34 0;
#X connect 57 0 56 1;
#X connect 58 0 56 0;
#X connect 59 0 75 0;
#X connect 60 0 87 2;
#X connect 61 0 6 0;
#X connect 62 0 10 0;
#X connect 63 0 26 0;
#X connect 63 0 27 0;
#X connect 63 0 28 0;
#X connect 63 0 31 0;
#X connect 63 0 29 0;
#X connect 63 0 30 0;
#X connect 64 0 75 0;
#X connect 65 0 16 0;
#X connect 66 0 70 0;
#X connect 67 0 66 0;
#X connect 68 0 85 0;
#X connect 69 0 75 0;
#X connect 70 0 69 0;
#X connect 71 0 72 0;
#X connect 72 0 69 1;
#X connect 73 0 91 0;
#X connect 74 0 61 0;
#X connect 74 0 62 0;
#X connect 75 0 77 0;
#X connect 75 0 81 0;
#X connect 76 0 39 0;
#X connect 76 0 74 0;
#X connect 76 0 80 0;
#X connect 80 0 79 0;
#X connect 81 0 82 0;
#X connect 82 0 79 0;
#X connect 85 0 67 0;
#X connect 86 0 88 0;
#X connect 86 0 89 0;
#X connect 87 0 21 0;
#X connect 88 0 87 1;
#X connect 89 0 87 2;
#X connect 90 0 92 0;
#X connect 90 0 93 0;
#X connect 91 0 71 0;
#X connect 91 0 71 1;
#X connect 92 0 91 1;
#X connect 93 0 91 2;
#X restore 153 204 pd lightning;
#N canvas 65 54 1301 714 stream 0;
#X obj 132 364 osc~;
#X obj 132 337 line~;
#X obj 132 510 hip~ 50;
#X obj 132 173 + 1;
#X obj 132 198 / 2;
#X obj 134 579 *~ 0.2;
#X obj 15 546 bp~ 600 16;
#X obj 99 545 bp~ 1500 18;
#X obj 185 545 bp~ 2200 20;
#X obj 269 543 bp~ 2900 24;
#X msg 132 316 \$1 15;
#X obj 500 507 hip~ 50;
#X obj 499 170 + 1;
#X obj 499 195 / 2;
#X obj 502 576 *~ 0.2;
#X obj 850 504 hip~ 50;
#X obj 849 167 + 1;
#X obj 849 192 / 2;
#X obj 852 573 *~ 0.2;
#X obj 383 543 bp~ 400 16;
#X obj 467 542 bp~ 1300 18;
#X obj 553 542 bp~ 2564 20;
#X obj 637 540 bp~ 3675 24;
#X obj 987 537 bp~ 3900 24;
#X obj 903 539 bp~ 2367 20;
#X obj 816 539 bp~ 1000 18;
#X obj 733 540 bp~ 300 12;
#X obj 133 487 *~;
#X obj 175 457 *~;
#X obj 500 354 osc~;
#X obj 500 327 line~;
#X msg 500 306 \$1 15;
#X obj 501 477 *~;
#X obj 543 448 *~;
#X obj 849 353 osc~;
#X obj 849 326 line~;
#X msg 849 305 \$1 15;
#X obj 850 476 *~;
#X obj 893 455 *~;
#X obj 176 405 lop~ 100;
#X obj 176 429 *~ 0.4;
#X obj 176 383 clip~ 0 1;
#X obj 544 372 clip~ 0 1;
#X obj 544 396 lop~ 100;
#X obj 132 98 metro 6;
#X obj 499 95 metro 7;
#X obj 848 92 metro 9;
#X obj 544 420 *~ 0.4;
#X obj 894 403 lop~ 30;
#X obj 894 427 *~ 0.4;
#X obj 894 376 clip~ 0 1;
#X obj 503 646 lop~ 5000;
#X obj 504 669 lop~ 5000;
#X obj 131 226 * 2000;
#X obj 499 223 * 3000;
#X obj 849 220 * 4000;
#X obj 171 199 * 2;
#X obj 545 198 * 3;
#X obj 891 192 * 4;
#X obj 485 20 loadbang;
#X msg 486 43 1;
#X obj 504 725 outlet~;
#X obj 626 18 inlet;
#X obj 504 696 *~;
#N canvas 65 82 450 300 bilex 0;
#X obj 55 180 expr exp($f1);
#X obj 55 80 random 8192;
#X obj 55 153 * 9;
#X obj 261 116 > 4096;
#X obj 261 138 sel 0 1;
#X msg 253 166 -1;
#X msg 285 166 1;
#X obj 55 204 *;
#X obj 55 59 t b;
#X obj 55 38 inlet;
#X obj 55 252 outlet;
#X text 36 6 bipolar exponential randoms;
#X obj 55 228 / 8192;
#X obj 55 130 / 8192;
#X connect 0 0 7 0;
#X connect 1 0 3 0;
#X connect 1 0 13 0;
#X connect 2 0 0 0;
#X connect 3 0 4 0;
#X connect 4 0 5 0;
#X connect 4 1 6 0;
#X connect 5 0 7 1;
#X connect 6 0 7 1;
#X connect 7 0 12 0;
#X connect 8 0 1 0;
#X connect 9 0 8 0;
#X connect 12 0 10 0;
#X connect 13 0 2 0;
#X restore 132 122 pd bilex 6;
#N canvas 65 82 450 300 bilex 0;
#X obj 55 180 expr exp($f1);
#X obj 55 80 random 8192;
#X obj 55 153 * 9;
#X obj 261 116 > 4096;
#X obj 261 138 sel 0 1;
#X msg 253 166 -1;
#X msg 285 166 1;
#X obj 55 204 *;
#X obj 55 59 t b;
#X obj 55 38 inlet;
#X obj 55 252 outlet;
#X text 36 6 bipolar exponential randoms;
#X obj 55 228 / 8192;
#X obj 55 130 / 8192;
#X connect 0 0 7 0;
#X connect 1 0 3 0;
#X connect 1 0 13 0;
#X connect 2 0 0 0;
#X connect 3 0 4 0;
#X connect 4 0 5 0;
#X connect 4 1 6 0;
#X connect 5 0 7 1;
#X connect 6 0 7 1;
#X connect 7 0 12 0;
#X connect 8 0 1 0;
#X connect 9 0 8 0;
#X connect 12 0 10 0;
#X connect 13 0 2 0;
#X restore 499 119 pd bilex 6.2;
#N canvas 65 82 450 300 bilex 0;
#X obj 55 180 expr exp($f1);
#X obj 55 80 random 8192;
#X obj 55 153 * 9;
#X obj 261 116 > 4096;
#X obj 261 138 sel 0 1;
#X msg 253 166 -1;
#X msg 285 166 1;
#X obj 55 204 *;
#X obj 55 59 t b;
#X obj 55 38 inlet;
#X obj 55 252 outlet;
#X text 36 6 bipolar exponential randoms;
#X obj 55 228 / 8192;
#X obj 55 130 / 8192;
#X connect 0 0 7 0;
#X connect 1 0 3 0;
#X connect 1 0 13 0;
#X connect 2 0 0 0;
#X connect 3 0 4 0;
#X connect 4 0 5 0;
#X connect 4 1 6 0;
#X connect 5 0 7 1;
#X connect 6 0 7 1;
#X connect 7 0 12 0;
#X connect 8 0 1 0;
#X connect 9 0 8 0;
#X connect 12 0 10 0;
#X connect 13 0 2 0;
#X restore 849 116 pd bilex 6.5;
#X msg 353 21 loadbang;
#X msg 352 45 480;
#X msg 1026 67 bang;
#X obj 1006 90 samplerate~;
#X obj 1006 161 /;
#X obj 1006 109 t b f;
#X obj 1006 46 loadbang;
#X msg 1006 133 1000;
#X obj 178 333 delwrite~ \$0-a 10;
#X obj 179 356 delread~ \$0-a;
#X obj 632 310 delwrite~ \$0-b 10;
#X obj 633 333 delread~ \$0-b;
#X obj 946 293 delwrite~ \$0-c 10;
#X obj 947 316 delread~ \$0-c;
#X connect 0 0 27 0;
#X connect 1 0 0 0;
#X connect 1 0 75 0;
#X connect 2 0 6 0;
#X connect 2 0 7 0;
#X connect 2 0 8 0;
#X connect 2 0 9 0;
#X connect 3 0 4 0;
#X connect 4 0 53 0;
#X connect 5 0 51 0;
#X connect 6 0 5 0;
#X connect 7 0 5 0;
#X connect 8 0 5 0;
#X connect 9 0 5 0;
#X connect 10 0 1 0;
#X connect 11 0 19 0;
#X connect 11 0 20 0;
#X connect 11 0 21 0;
#X connect 11 0 22 0;
#X connect 12 0 13 0;
#X connect 13 0 54 0;
#X connect 14 0 51 0;
#X connect 15 0 23 0;
#X connect 15 0 24 0;
#X connect 15 0 25 0;
#X connect 15 0 26 0;
#X connect 16 0 17 0;
#X connect 17 0 55 0;
#X connect 18 0 51 0;
#X connect 19 0 14 0;
#X connect 20 0 14 0;
#X connect 21 0 14 0;
#X connect 22 0 14 0;
#X connect 23 0 18 0;
#X connect 24 0 18 0;
#X connect 25 0 18 0;
#X connect 26 0 18 0;
#X connect 27 0 2 0;
#X connect 28 0 27 1;
#X connect 29 0 32 0;
#X connect 30 0 29 0;
#X connect 30 0 77 0;
#X connect 31 0 30 0;
#X connect 32 0 11 0;
#X connect 33 0 32 1;
#X connect 34 0 37 0;
#X connect 35 0 34 0;
#X connect 35 0 79 0;
#X connect 36 0 35 0;
#X connect 37 0 15 0;
#X connect 38 0 37 1;
#X connect 39 0 40 0;
#X connect 40 0 28 0;
#X connect 40 0 28 1;
#X connect 41 0 39 0;
#X connect 42 0 43 0;
#X connect 43 0 47 0;
#X connect 44 0 64 0;
#X connect 45 0 65 0;
#X connect 46 0 66 0;
#X connect 47 0 33 0;
#X connect 47 0 33 1;
#X connect 48 0 49 0;
#X connect 49 0 38 0;
#X connect 49 0 38 1;
#X connect 50 0 48 0;
#X connect 51 0 52 0;
#X connect 52 0 63 0;
#X connect 53 0 10 0;
#X connect 54 0 31 0;
#X connect 55 0 36 0;
#X connect 56 0 53 1;
#X connect 57 0 54 1;
#X connect 58 0 55 1;
#X connect 59 0 60 0;
#X connect 60 0 45 0;
#X connect 60 0 46 0;
#X connect 60 0 44 0;
#X connect 62 0 63 1;
#X connect 63 0 61 0;
#X connect 64 0 3 0;
#X connect 65 0 12 0;
#X connect 66 0 16 0;
#X connect 67 0 68 0;
#X connect 68 0 56 0;
#X connect 68 0 57 0;
#X connect 68 0 58 0;
#X connect 69 0 70 0;
#X connect 70 0 72 0;
#X connect 71 0 76 0;
#X connect 71 0 78 0;
#X connect 71 0 80 0;
#X connect 72 0 74 0;
#X connect 72 1 71 1;
#X connect 73 0 70 0;
#X connect 74 0 71 0;
#X connect 76 0 41 0;
#X connect 78 0 42 0;
#X connect 80 0 50 0;
#X restore 337 204 pd stream;
#X obj 680 231 dac~;
#N canvas 65 107 852 686 rainyday 0;
#X obj 226 263 osc~;
#X obj 237 59 noise~;
#X obj 226 337 *~;
#X obj 193 234 +~ 2000;
#X obj 264 262 *~;
#X obj 264 287 *~;
#X obj 226 441 *~ 0.01;
#X obj 227 463 lop~ 10000;
#X obj 238 155 bp~ 2.064 0.002;
#X obj 265 312 *~;
#X obj 225 371 *~ 0.3;
#X obj 239 178 *~ 3.2;
#X obj 226 396 hip~ 500;
#X obj 227 419 hip~ 500;
#X obj 192 210 *~ 3000;
#X obj 226 486 *~ 0.02;
#X obj 112 263 osc~;
#X obj 123 59 noise~;
#X obj 112 337 *~;
#X obj 150 262 *~;
#X obj 150 287 *~;
#X obj 112 441 *~ 0.01;
#X obj 113 463 lop~ 10000;
#X obj 124 155 bp~ 2.064 0.002;
#X obj 151 312 *~;
#X obj 111 371 *~ 0.3;
#X obj 125 178 *~ 3.2;
#X obj 112 396 hip~ 500;
#X obj 113 419 hip~ 500;
#X obj 340 262 osc~;
#X obj 351 58 noise~;
#X obj 340 336 *~;
#X obj 307 233 +~ 2000;
#X obj 378 261 *~;
#X obj 378 286 *~;
#X obj 340 440 *~ 0.01;
#X obj 341 462 lop~ 10000;
#X obj 352 154 bp~ 2.064 0.002;
#X obj 379 311 *~;
#X obj 339 370 *~ 0.3;
#X obj 340 395 hip~ 500;
#X obj 341 418 hip~ 500;
#X obj 78 210 *~ 344;
#X obj 79 234 +~ 3000;
#X obj 112 486 *~ 0.01;
#X obj 306 209 *~ 5000;
#X obj 353 177 *~ 3.8;
#X obj 340 485 *~ 0.01;
#X obj 427 201 *~;
#X obj 135 92 lop~ 16;
#X obj 427 492 *~ 1;
#X obj 499 195 /~;
#X obj 498 302 clip~ 0 0.9;
#X obj 427 287 bp~ 333 4;
#X obj 232 534 lop~ 12000;
#X obj 428 335 *~ 0.4;
#X obj 9 335 *~ 0.007;
#X obj 251 85 lop~ 0.01;
#X obj 498 220 hip~ 10000;
#X obj 429 87 lop~ 1900;
#X obj 499 281 *~;
#X obj 500 256 *~ 0.03;
#X text 201 3 Rain generator;
#X obj 498 413 vcf~ 3333 30;
#X obj 537 345 +~ 1000;
#X obj 136 118 *~ 300000;
#X obj 536 381 clip~ 1000 10000;
#X obj 495 440 *~ 0.7;
#X text 25 377 ambience;
#X text 433 364 rumble;
#X text 494 465 drips;
#X text 143 349 droplets;
#X text 266 349 droplets;
#X obj 232 559 *~;
#X obj 538 39 inlet;
#X obj 232 612 outlet~;
#X obj 232 584 *~;
#X obj 322 554 / 22;
#X obj 322 575 + 0.25;
#X obj 322 534 r \$0-windrain;
#X obj 719 387 loadbang;
#X msg 719 416 20;
#X connect 0 0 2 0;
#X connect 1 0 8 0;
#X connect 1 0 57 0;
#X connect 2 0 10 0;
#X connect 3 0 0 0;
#X connect 4 0 5 0;
#X connect 4 0 5 1;
#X connect 5 0 9 0;
#X connect 5 0 9 1;
#X connect 6 0 7 0;
#X connect 7 0 15 0;
#X connect 8 0 11 0;
#X connect 9 0 2 1;
#X connect 10 0 12 0;
#X connect 11 0 4 0;
#X connect 11 0 4 1;
#X connect 11 0 14 0;
#X connect 12 0 13 0;
#X connect 13 0 6 0;
#X connect 14 0 3 0;
#X connect 15 0 54 0;
#X connect 16 0 18 0;
#X connect 17 0 23 0;
#X connect 17 0 49 0;
#X connect 17 0 56 0;
#X connect 18 0 25 0;
#X connect 19 0 20 0;
#X connect 19 0 20 1;
#X connect 20 0 24 0;
#X connect 20 0 24 1;
#X connect 21 0 22 0;
#X connect 22 0 44 0;
#X connect 23 0 26 0;
#X connect 24 0 18 1;
#X connect 25 0 27 0;
#X connect 26 0 19 0;
#X connect 26 0 19 1;
#X connect 26 0 42 0;
#X connect 27 0 28 0;
#X connect 28 0 21 0;
#X connect 29 0 31 0;
#X connect 30 0 37 0;
#X connect 30 0 48 1;
#X connect 30 0 59 0;
#X connect 31 0 39 0;
#X connect 32 0 29 0;
#X connect 33 0 34 0;
#X connect 33 0 34 1;
#X connect 34 0 38 0;
#X connect 34 0 38 1;
#X connect 35 0 36 0;
#X connect 36 0 47 0;
#X connect 37 0 46 0;
#X connect 38 0 31 1;
#X connect 39 0 40 0;
#X connect 40 0 41 0;
#X connect 41 0 35 0;
#X connect 42 0 43 0;
#X connect 43 0 16 0;
#X connect 44 0 54 0;
#X connect 45 0 32 0;
#X connect 46 0 33 0;
#X connect 46 0 33 1;
#X connect 46 0 45 0;
#X connect 47 0 54 0;
#X connect 48 0 53 0;
#X connect 49 0 48 0;
#X connect 49 0 65 0;
#X connect 50 0 54 0;
#X connect 51 0 58 0;
#X connect 52 0 63 0;
#X connect 53 0 55 0;
#X connect 54 0 73 0;
#X connect 55 0 50 0;
#X connect 56 0 54 0;
#X connect 57 0 51 0;
#X connect 58 0 61 0;
#X connect 59 0 51 1;
#X connect 60 0 52 0;
#X connect 61 0 60 0;
#X connect 61 0 60 1;
#X connect 63 0 67 0;
#X connect 64 0 66 0;
#X connect 65 0 64 0;
#X connect 66 0 63 1;
#X connect 67 0 54 0;
#X connect 73 0 76 0;
#X connect 74 0 73 1;
#X connect 76 0 75 0;
#X connect 77 0 78 0;
#X connect 78 0 76 1;
#X connect 79 0 77 0;
#X connect 80 0 81 0;
#X connect 81 0 63 2;
#X restore 250 204 pd rainyday;
#N canvas 65 54 1301 714 crymeariver 0;
#X obj 259 202 osc~;
#X obj 258 169 line~;
#X obj 258 122 + 800;
#X obj 258 98 random 1600;
#X obj 243 281 *~;
#X obj 202 226 lop~ 10;
#X obj 371 203 osc~;
#X obj 370 170 line~;
#X obj 355 282 *~;
#X obj 458 245 lop~ 10;
#X obj 370 123 + 600;
#X obj 300 306 *~;
#X obj 370 99 random 1200;
#X obj 243 330 *~ 0.04;
#X obj 355 331 *~ 0.05;
#X obj 301 330 *~ 0.2;
#X obj 773 204 osc~;
#X obj 772 171 line~;
#X obj 756 280 *~;
#X obj 716 228 lop~ 10;
#X obj 885 205 osc~;
#X obj 884 172 line~;
#X obj 868 280 *~;
#X obj 993 230 lop~ 10;
#X obj 814 312 *~;
#X obj 813 338 *~ 0.2;
#X obj 432 419 *~;
#X obj 772 124 + 900;
#X obj 884 101 random 2200;
#X obj 884 125 + 1100;
#X obj 755 338 *~ 0.1;
#X obj 867 339 *~ 0.1;
#X obj 772 100 random 1800;
#X obj 773 72 metro 5;
#X obj 259 70 metro 3;
#X obj 432 467 hip~ 1000;
#X obj 360 28 loadbang;
#X msg 360 49 1;
#X obj 432 519 hip~ 800;
#X obj 258 144 pack 1 5;
#X obj 371 145 pack 1 6;
#X obj 300 353 bp~ 1000 8;
#X obj 299 387 hip~ 600;
#X obj 298 426 *~ 0.05;
#X obj 716 252 *~;
#X obj 994 257 *~;
#X obj 772 146 pack 1 6;
#X obj 884 147 pack 1 8;
#X obj 812 362 bp~ 2000 8;
#X obj 811 395 hip~ 700;
#X obj 811 421 *~ 0.009;
#X obj 432 443 bp~ 700 8;
#X obj 431 490 *~ 2;
#X obj 202 252 *~;
#X obj 458 269 *~;
#X text 348 -1 stream try 5;
#X obj 432 593 outlet~;
#X obj 432 570 *~;
#X obj 613 29 inlet;
#X obj 432 545 *~ 10;
#X msg 1219 67 bang;
#X obj 1199 90 samplerate~;
#X obj 1199 161 /;
#X obj 1199 109 t b f;
#X obj 1199 46 loadbang;
#X msg 1199 133 1000;
#X obj 1013 166 delwrite~ \$0-d 10;
#X obj 1014 189 delread~ \$0-d;
#X obj 626 164 delwrite~ \$0-e 10;
#X obj 627 187 delread~ \$0-e;
#X msg 131 29 bang;
#X obj 111 52 samplerate~;
#X obj 111 123 /;
#X obj 111 71 t b f;
#X obj 111 8 loadbang;
#X msg 111 95 1000;
#X obj 85 184 delwrite~ \$0-f 10;
#X obj 86 207 delread~ \$0-f;
#X obj 451 194 delwrite~ \$0-g 10;
#X obj 452 217 delread~ \$0-g;
#X connect 0 0 4 1;
#X connect 1 0 0 0;
#X connect 1 0 76 0;
#X connect 2 0 39 0;
#X connect 3 0 2 0;
#X connect 4 0 11 0;
#X connect 4 0 13 0;
#X connect 5 0 53 0;
#X connect 5 0 53 1;
#X connect 6 0 8 1;
#X connect 7 0 6 0;
#X connect 7 0 78 0;
#X connect 8 0 11 1;
#X connect 8 0 14 0;
#X connect 9 0 54 0;
#X connect 9 0 54 1;
#X connect 10 0 40 0;
#X connect 11 0 15 0;
#X connect 12 0 10 0;
#X connect 13 0 42 0;
#X connect 14 0 42 0;
#X connect 15 0 41 0;
#X connect 16 0 18 1;
#X connect 17 0 16 0;
#X connect 17 0 68 0;
#X connect 18 0 24 0;
#X connect 18 0 30 0;
#X connect 19 0 44 0;
#X connect 19 0 44 1;
#X connect 20 0 22 1;
#X connect 21 0 20 0;
#X connect 21 0 66 0;
#X connect 22 0 24 1;
#X connect 22 0 31 0;
#X connect 23 0 45 0;
#X connect 23 0 45 1;
#X connect 24 0 25 0;
#X connect 25 0 48 0;
#X connect 26 0 51 0;
#X connect 27 0 46 0;
#X connect 28 0 29 0;
#X connect 29 0 47 0;
#X connect 30 0 49 0;
#X connect 31 0 49 0;
#X connect 32 0 27 0;
#X connect 33 0 28 0;
#X connect 33 0 32 0;
#X connect 34 0 3 0;
#X connect 34 0 12 0;
#X connect 35 0 52 0;
#X connect 36 0 37 0;
#X connect 37 0 34 0;
#X connect 37 0 33 0;
#X connect 38 0 59 0;
#X connect 39 0 1 0;
#X connect 40 0 7 0;
#X connect 41 0 42 0;
#X connect 42 0 43 0;
#X connect 42 0 26 0;
#X connect 43 0 38 0;
#X connect 44 0 18 0;
#X connect 45 0 22 0;
#X connect 46 0 17 0;
#X connect 47 0 21 0;
#X connect 48 0 49 0;
#X connect 49 0 50 0;
#X connect 49 0 26 1;
#X connect 50 0 38 0;
#X connect 51 0 35 0;
#X connect 52 0 38 0;
#X connect 53 0 4 0;
#X connect 54 0 8 0;
#X connect 57 0 56 0;
#X connect 58 0 57 1;
#X connect 59 0 57 0;
#X connect 60 0 61 0;
#X connect 61 0 63 0;
#X connect 62 0 67 0;
#X connect 62 0 69 0;
#X connect 63 0 65 0;
#X connect 63 1 62 1;
#X connect 64 0 61 0;
#X connect 65 0 62 0;
#X connect 67 0 23 0;
#X connect 69 0 19 0;
#X connect 70 0 71 0;
#X connect 71 0 73 0;
#X connect 72 0 77 0;
#X connect 72 0 79 0;
#X connect 73 0 75 0;
#X connect 73 1 72 1;
#X connect 74 0 71 0;
#X connect 75 0 72 0;
#X connect 77 0 5 0;
#X connect 79 0 9 0;
#X restore 422 204 pd crymeariver;
#X obj 250 181 line;
#X obj 422 179 line;
#X msg 422 156 1 20000;
#X obj 337 179 line;
#X msg 337 156 1 10000;
#X obj 152 227 throw~ mix;
#X obj 249 227 throw~ mix;
#X obj 421 227 throw~ mix;
#X obj 337 228 throw~ mix;
#X obj 681 181 catch~ mix;
#X obj 528 228 throw~ mix;
#N canvas 65 97 827 502 bubblefactory 0;
#X obj 364 328 osc~ 440;
#X obj 364 352 *~;
#X obj 345 194 random 100;
#X obj 345 217 moses 50;
#X msg 345 240 bang;
#X text 366 266 pitch;
#X obj 366 393 hip~ 40;
#X obj 366 445 *~;
#X obj 366 475 outlet~;
#X obj 491 108 inlet;
#X obj 365 371 *~ 0.03;
#X obj 247 105 f 0;
#X obj 278 105 + 1;
#X obj 247 130 mod 200;
#X obj 247 157 sel 29 37 47 67 89 113 157 197;
#X obj 247 79 metro 5;
#X obj 244 37 loadbang;
#X msg 243 57 1;
#X obj 364 306 *~ 2300;
#X obj 676 257 * 23;
#X obj 676 280 + 1000;
#X obj 366 418 *~ 0.2;
#X obj 114 186 loadbang;
#N canvas 65 82 450 300 ead~ 0;
#X obj 44 26 inlet;
#X obj 47 52 bang;
#X obj 43 79 f \$1;
#X obj 107 36 inlet;
#X obj 40 109 t f b f;
#X obj 70 151 delay;
#X obj 145 148 inlet;
#X obj 81 191 f \$2;
#X obj 43 257 line~;
#X msg 35 222 1 \$1;
#X msg 80 229 0 \$1;
#X obj 45 286 outlet~;
#X connect 0 0 1 0;
#X connect 1 0 2 0;
#X connect 2 0 4 0;
#X connect 3 0 2 1;
#X connect 4 0 9 0;
#X connect 4 1 5 0;
#X connect 4 2 5 1;
#X connect 5 0 7 0;
#X connect 6 0 7 1;
#X connect 7 0 10 0;
#X connect 8 0 11 0;
#X connect 9 0 8 0;
#X connect 10 0 8 0;
#X restore 70 250 pd ead~ 0 10;
#X msg 105 207 23;
#X msg 133 225 1000;
#X obj 518 189 loadbang;
#N canvas 65 82 450 300 ead~ 0;
#X obj 44 26 inlet;
#X obj 47 52 bang;
#X obj 43 79 f \$1;
#X obj 107 36 inlet;
#X obj 40 109 t f b f;
#X obj 70 151 delay;
#X obj 145 148 inlet;
#X obj 81 191 f \$2;
#X obj 43 257 line~;
#X msg 35 222 1 \$1;
#X msg 80 229 0 \$1;
#X obj 45 286 outlet~;
#X connect 0 0 1 0;
#X connect 1 0 2 0;
#X connect 2 0 4 0;
#X connect 3 0 2 1;
#X connect 4 0 9 0;
#X connect 4 1 5 0;
#X connect 4 2 5 1;
#X connect 5 0 7 0;
#X connect 6 0 7 1;
#X connect 7 0 10 0;
#X connect 8 0 11 0;
#X connect 9 0 8 0;
#X connect 10 0 8 0;
#X restore 474 253 pd ead~ 0 10;
#X msg 509 210 400;
#X msg 537 228 10;
#X connect 0 0 1 0;
#X connect 1 0 10 0;
#X connect 2 0 3 0;
#X connect 2 0 19 0;
#X connect 3 0 4 0;
#X connect 4 0 23 0;
#X connect 4 0 27 0;
#X connect 6 0 21 0;
#X connect 7 0 8 0;
#X connect 9 0 7 1;
#X connect 10 0 6 0;
#X connect 11 0 12 0;
#X connect 11 0 13 0;
#X connect 12 0 11 1;
#X connect 13 0 14 0;
#X connect 14 0 2 0;
#X connect 14 1 2 0;
#X connect 14 2 2 0;
#X connect 14 3 2 0;
#X connect 14 4 2 0;
#X connect 14 5 2 0;
#X connect 14 6 2 0;
#X connect 14 7 2 0;
#X connect 15 0 11 0;
#X connect 16 0 17 0;
#X connect 17 0 15 0;
#X connect 18 0 0 0;
#X connect 19 0 20 0;
#X connect 20 0 18 1;
#X connect 21 0 7 0;
#X connect 22 0 24 0;
#X connect 22 0 25 0;
#X connect 23 0 1 1;
#X connect 24 0 23 1;
#X connect 25 0 23 2;
#X connect 26 0 28 0;
#X connect 26 0 29 0;
#X connect 27 0 18 0;
#X connect 28 0 27 1;
#X connect 29 0 27 2;
#X restore 529 205 pd bubblefactory;
#X obj 529 181 line;
#X msg 529 158 1 10000;
#X obj 250 129 r rain;
#X obj 337 128 r stream;
#X obj 422 127 r river;
#X obj 153 168 r thunder;
#X obj 680 204 *~ 0.3;
#N canvas 65 97 512 467 windymiller 0;
#X obj 62 313 vcf~ 600 23;
#X obj 161 314 vcf~ 600 23;
#X obj 62 377 *~;
#X obj 26 189 lop~ 1;
#X obj 97 175 lop~ 0.1;
#X obj 198 174 lop~ 0.19;
#X obj 98 281 +~;
#X obj 197 12 osc~ 0.03;
#X obj 198 284 +~;
#X obj 244 37 +~;
#X obj 270 11 osc~ 0.3;
#X obj 61 401 bp~ 1000 7;
#X obj 60 424 outlet~;
#X obj 163 381 env~;
#X obj 165 356 +~;
#X obj 163 403 - 150;
#X obj 163 425 clip 0 20;
#X msg 233 290 20;
#X obj 23 215 *~;
#X obj 340 16 inlet;
#X text 339 1 control;
#X obj 97 98 *~;
#X obj 97 57 noise~;
#X obj 256 311 loadbang;
#X obj 163 447 s \$0-windrain;
#X obj 61 346 *~ 0.15;
#X msg 134 291 14;
#X obj 244 83 *~ 300;
#X obj 197 227 *~ 180000;
#X obj 98 198 *~ 100000;
#X obj 245 59 *~ 0.25;
#X obj 23 241 *~ 1000;
#X obj 23 269 +~ 0.65;
#X obj 243 105 +~ 100;
#X obj 197 252 clip~ 300 1000;
#X obj 98 222 clip~ 250 1000;
#X connect 0 0 25 0;
#X connect 1 0 25 0;
#X connect 2 0 11 0;
#X connect 3 0 18 0;
#X connect 3 0 18 1;
#X connect 4 0 29 0;
#X connect 5 0 28 0;
#X connect 6 0 0 1;
#X connect 6 0 14 0;
#X connect 7 0 9 0;
#X connect 8 0 1 1;
#X connect 8 0 14 1;
#X connect 9 0 30 0;
#X connect 10 0 9 1;
#X connect 11 0 12 0;
#X connect 13 0 15 0;
#X connect 14 0 13 0;
#X connect 15 0 16 0;
#X connect 16 0 24 0;
#X connect 17 0 1 2;
#X connect 18 0 31 0;
#X connect 19 0 21 1;
#X connect 21 0 0 0;
#X connect 21 0 1 0;
#X connect 21 0 3 0;
#X connect 21 0 4 0;
#X connect 21 0 5 0;
#X connect 22 0 21 0;
#X connect 23 0 17 0;
#X connect 23 0 26 0;
#X connect 25 0 2 0;
#X connect 26 0 0 2;
#X connect 27 0 33 0;
#X connect 28 0 34 0;
#X connect 29 0 35 0;
#X connect 30 0 27 0;
#X connect 31 0 32 0;
#X connect 32 0 2 1;
#X connect 33 0 6 1;
#X connect 33 0 8 1;
#X connect 34 0 8 0;
#X connect 35 0 6 0;
#X restore 47 204 pd windymiller;
#X obj 47 228 throw~ mix;
#X obj 47 179 line;
#X obj 529 127 r bubbles;
#X obj 47 132 r windy;
#N canvas 65 82 709 298 weatherman 0;
#X obj 308 74 f 0;
#X obj 341 74 + 1;
#X obj 136 153 s thunder;
#X obj 62 153 s rain;
#X obj 358 153 s stream;
#X obj 469 153 s river;
#X obj 308 96 sel 0 10 30 55 75 99;
#X obj 308 9 loadbang;
#X msg 308 30 1;
#X obj 581 151 s bubbles;
#X obj 256 152 s windy;
#X obj 307 51 metro 1600;
#X connect 0 0 1 0;
#X connect 0 0 6 0;
#X connect 1 0 0 1;
#X connect 6 0 3 0;
#X connect 6 1 2 0;
#X connect 6 1 10 0;
#X connect 6 2 2 0;
#X connect 6 2 4 0;
#X connect 6 3 2 0;
#X connect 6 3 5 0;
#X connect 6 4 2 0;
#X connect 6 4 9 0;
#X connect 6 5 2 0;
#X connect 7 0 8 0;
#X connect 8 0 11 0;
#X connect 11 0 0 0;
#X restore 264 58 pd weatherman;
#X msg 250 158 1 5000;
#X msg 47 156 1 30000;
#X connect 0 0 10 0;
#X connect 1 0 13 0;
#X connect 3 0 11 0;
#X connect 4 0 12 0;
#X connect 5 0 3 0;
#X connect 6 0 4 0;
#X connect 7 0 6 0;
#X connect 8 0 1 0;
#X connect 9 0 8 0;
#X connect 14 0 23 0;
#X connect 16 0 15 0;
#X connect 17 0 16 0;
#X connect 18 0 17 0;
#X connect 19 0 30 0;
#X connect 20 0 9 0;
#X connect 21 0 7 0;
#X connect 22 0 0 0;
#X connect 23 0 2 0;
#X connect 23 0 2 1;
#X connect 24 0 25 0;
#X connect 26 0 24 0;
#X connect 27 0 18 0;
#X connect 28 0 31 0;
#X connect 30 0 5 0;
#X connect 31 0 26 0;
