#N canvas 65 82 416 686 10;
#X obj 100 91 adc~;
#X obj 82 146 env~ 1024 512;
#X msg 90 369 disconnect;
#X obj 82 396 netsend -u -b;
#X msg 91 345 connect localhost 5000;
#X obj 82 245 list prepend send;
#X obj 82 270 list trim;
#X text 185 369 don't send;
#X text 250 348 send as UDP;
#X obj 82 207 oscformat /env;
#X obj 111 321 loadbang;
#X connect 0 0 1 0;
#X connect 1 0 9 0;
#X connect 2 0 3 0;
#X connect 4 0 3 0;
#X connect 5 0 6 0;
#X connect 6 0 3 0;
#X connect 9 0 5 0;
#X connect 10 0 4 0;
