#N canvas 0 53 1920 1027 10;
#X obj 43 140 sampler 232335__leifgreen__slow-drum-loop.wav;
#X obj 120 656 dac~;
#X msg 43 116 1 1 0 8000;
#X obj 119 598 rj/e_dubdel;
#X obj 449 241 loadbang;
#X msg 449 261 dry 0.2 \, bq 2 \, basedur 500 \, bpitch 83 \, feedback
0.99 \, dell 2 \, delr 3 \,;
#X obj 507 337 rj/g_nbx basedur;
#X obj 507 365 rj/g_nbx dell;
#X obj 507 396 rj/g_nbx delr;
#X obj 507 426 rj/g_nhsl feedback 0 1;
#X obj 507 457 rj/g_nbx bq;
#X obj 507 490 rj/g_nbx bpitch;
#X obj 507 517 rj/g_hsl dry 0 1;
#X text 27 15 Utilisation conjointe des samples et effets : la source
audio est un sample au format wav \, l'effet est un écho "dub" avec
de nombreux parametres.;
#X text 138 118 comme dans la séance 1 il faut cliquer pour lancer
le son;
#X text 238 595 l'effet est ici (penser à regarder l'aide);
#X text 448 212 Les (nombreux) parametres pour transformer le son sont
ici;
#X text 865 265 permet d'initialiser les différents paramètres avec
des valeurs par défaut.;
#X text 609 342 durée de base de l'écho en ms;
#X text 610 365 diviseur du temps d'écho pour le cannal de gauche
;
#X text 610 394 diviseur du temps d'écho pour le cannal de droite
;
#X text 651 429 force de l'écho;
#X text 593 461 deux paramètre d'un filtre passe bande;
#X text 662 521 deux paramètre d'un filtre passe bande;
#X connect 0 0 3 0;
#X connect 0 0 3 1;
#X connect 2 0 0 0;
#X connect 3 0 1 0;
#X connect 3 1 1 1;
#X connect 4 0 5 0;
#X connect 5 0 6 0;
#X connect 6 0 7 0;
#X connect 7 0 8 0;
#X connect 8 0 9 0;
#X connect 9 0 10 0;
#X connect 10 0 11 0;
#X connect 11 0 12 0;
#X connect 12 0 3 2;
