#N canvas 1 89 1265 821 10;
#X obj 31 4 tgl 15 0 empty empty empty 17 7 0 10 -262144 -1 -1 1 1
;
#X obj 31 28 metro 500;
#X obj 31 58 f 0;
#X obj 61 58 + 1;
#X obj 31 143 mod 8;
#X obj 34 631 rj/u_makepoly 5 1 s_chip \$0-inst;
#X obj 31 292 select 0;
#X obj 153 552 nbx 3 20 0 256 0 0 empty empty empty 0 -8 0 16 -260097
-262144 -1 9 256;
#X obj 153 536 hradio 8 1 0 15 empty empty empty 0 -8 0 10 -262144
-1 -1 9;
#N canvas 1 85 1086 675 chip_presets 0;
#X obj 91 26 inlet;
#X obj 151 615 outlet name;
#X obj 151 590 symbol;
#X obj 217 646 outlet parms;
#X obj 151 566 route name;
#X obj 606 195 loadbang;
#X text 603 141 set up the interface to be human readable and show
which controls are actually used;
#X text 605 171 Requires modified [g-hsl];
#X msg -14 264 name portsaw \, mod3c 1 \, mod3b 0.929528 \, mod2a 0
\, mod1d 0.125984 \, mod1c 0 \, mod1b 0.716535 \, mod1a 0.84252 \,
osc3a 0.661417 \, osc2d 0 \, osc2c 0.188976 \, osc2b 0.622047 \, osc2a
1 \, osc1d 1 \, osc1c 0.155984 \, osc1b 0.503937 \, osc1a 1 \, env3r
0 \, env3s 0 \, env3d 0 \, env3a 0 \, env2r 0.0166142 \, env2s 0.889764
\, env2d 0 \, env2a 0 \, env1r 0.0331496 \, env1s 0.826772 \, env1d
0.10315 \, env1a 0 \,;
#X msg 606 233 env1a color 128 \, env1a label AMP-ATTACK \, env1d color
128 \, env1d label AMP-DECAY \, env1r color 128 \, env1r label AMP-REL
\, env1s color 128 \, env1s label AMP-SUS \, env2a color 128 \, env2a
label OSC1-ATTACK \, env2d color 128 \, env2d label OSC1-DECAY \, env2r
color 128 \, env2r label OSC1-REL \, env2s color 128 \, env2s label
OSC1-SUS \, env3a color 128 \, env3a label OSC2-ATTACK \, env3d color
128 \, env3d label OSC2-DECAY \, env3r color 128 \, env3r label OSC2-REL
\, env3s color 128 \, env3s label OSC2-SUS \, mod1a color 128 \, mod1a
label LFO-FREQ1 \, mod1b color 128 \, mod1b label LFO-FREQ2 \, mod1c
color 128 \, mod1c label VIB-AMNT \, mod1d color 128 \, mod1d label
VIB-ONSET \, mod2a color 2 \, mod2a label _ \, mod2b color 2 \, mod2b
label _ \, mod2c color 2 \, mod2c label _ \, mod2d color 2 \, mod2d
label _ \, mod3a color 2 \, mod3a label _ \, mod3b color 128 \, mod3b
label VOLUME \, mod3c color 128 \, mod3c label PORTAMENTO \, mod3d
color 2 \, mod3d label _ \, osc1a color 128 \, osc1a label OSC1-BRIGHT
\, osc1b color 128 \, osc1b label OSC1-WAVE \, osc1c color 128 \, osc1c
label OSC1-CLIP \, osc1d color 128 \, osc1d label OSC1-ENV \, osc2a
color 128 \, osc2a label OSC2-BRIGHT \, osc2b color 128 \, osc2b label
OSC2-WAVE \, osc2c color 128 \, osc2c label OSC2-CLIP \, osc2d color
128 \, osc2d label OSC2-ENV \, osc3a color 128 \, osc3a label OCTAVE
\, osc3b color 128 \, osc3b label OSC2-OCT \, osc3c color 2 \, osc3c
label _ \, osc3d color 2 \, osc3d label _;
#X msg 3 258 name dualbass \, mod3d 0 \, mod3c 0 \, mod3b 0.480709
\, mod3a 0 \, mod2d 0 \, mod2c 0 \, mod2b 0 \, mod2a 0 \, mod1d 0.125984
\, mod1c 0 \, mod1b 0.716535 \, mod1a 0.84252 \, osc3d 0 \, osc3c 0
\, osc3b 0.23622 \, osc3a 0.417323 \, osc2d 0.700787 \, osc2c 0.188976
\, osc2b 0.622047 \, osc2a 1 \, osc1d 1 \, osc1c 0.155984 \, osc1b
0.503937 \, osc1a 1 \, env3r 0.0393701 \, env3s 0.645669 \, env3d 0
\, env3a 0 \, env2r 0.0166142 \, env2s 0.889764 \, env2d 0 \, env2a
0 \, env1r 0.0331496 \, env1s 0.826772 \, env1d 0.10315 \, env1a 0
\,;
#X msg 17 258 name reedy1 \, mod3d 0 \, mod3c 0 \, mod3b 0.583071 \,
mod3a 0 \, mod2d 0 \, mod2c 0 \, mod2b 0 \, mod2a 0 \, mod1d 0.228346
\, mod1c 0.015748 \, mod1b 0.614173 \, mod1a 0.732283 \, osc3d 0 \,
osc3c 0 \, osc3b 0.472441 \, osc3a 0.755906 \, osc2d 0.826772 \, osc2c
0.0472441 \, osc2b 0.401575 \, osc2a 0.023622 \, osc1d 0.779528 \,
osc1c 0.045748 \, osc1b 0.574803 \, osc1a 0.015748 \, env3r 0.0393701
\, env3s 0.645669 \, env3d 0.19685 \, env3a 0.0629921 \, env2r 0.0166142
\, env2s 0.889764 \, env2d 0.110236 \, env2a 0 \, env1r 0.0331496 \,
env1s 0.826772 \, env1d 0.10315 \, env1a 0 \,;
#X msg 26 257 name pure \, mod3d 0 \, mod3c 0 \, mod3b 0.291732 \,
mod3a 0 \, mod2d 0 \, mod2c 0 \, mod2b 0 \, mod2a 0 \, mod1d 0.244094
\, mod1c 0.401575 \, mod1b 0.614173 \, mod1a 0.629921 \, osc3d 0 \,
osc3c 0 \, osc3b 0.472441 \, osc3a 0.755906 \, osc2d 0 \, osc2c 0.0472441
\, osc2b 0.401575 \, osc2a 0.023622 \, osc1d 0.779528 \, osc1c 0.203228
\, osc1b 1 \, osc1a 0.015748 \, env3r 0.0393701 \, env3s 0.645669 \,
env3d 0.19685 \, env3a 0.0629921 \, env2r 0.0244882 \, env2s 0.897638
\, env2d 0.110236 \, env2a 0 \, env1r 0.0331496 \, env1s 0.826772 \,
env1d 0.10315 \, env1a 0.000472441 \,;
#X msg 37 256 name voicier \, mod3d 0 \, mod3c 0 \, mod3b 0.291732
\, mod3a 0 \, mod2d 0 \, mod2c 0 \, mod2b 0 \, mod2a 0 \, mod1d 0.244094
\, mod1c 0.401575 \, mod1b 0.582677 \, mod1a 0.629921 \, osc3d 0 \,
osc3c 0 \, osc3b 0.472441 \, osc3a 1 \, osc2d 0.740157 \, osc2c 0.204724
\, osc2b 1 \, osc2a 0.496063 \, osc1d 0.677165 \, osc1c 0.203228 \,
osc1b 1 \, osc1a 0.527559 \, env3r 0.0393701 \, env3s 0.645669 \, env3d
0.19685 \, env3a 0.0629921 \, env2r 0.0244882 \, env2s 0.897638 \,
env2d 0.110236 \, env2a 0.0393701 \, env1r 0.0331496 \, env1s 0.826772
\, env1d 0.10315 \, env1a 0.000472441 \,;
#X msg 49 255 name stringy \, mod3d 0 \, mod3c 0 \, mod3b 0.197244
\, mod3a 0 \, mod2d 0 \, mod2c 0 \, mod2b 0 \, mod2a 0 \, mod1d 0.244094
\, mod1c 0.188976 \, mod1b 0.582677 \, mod1a 0.590551 \, osc3d 0 \,
osc3c 0 \, osc3b 0.472441 \, osc3a 1 \, osc2d 0.574803 \, osc2c 0.204724
\, osc2b 0.992126 \, osc2a 0.496063 \, osc1d 0.755906 \, osc1c 0.203228
\, osc1b 0.976378 \, osc1a 0.527559 \, env3r 0.0393701 \, env3s 0.645669
\, env3d 0.19685 \, env3a 0.0629921 \, env2r 0.0244882 \, env2s 0.897638
\, env2d 0.110236 \, env2a 0.23622 \, env1r 0.0331496 \, env1s 0.826772
\, env1d 0.10315 \, env1a 0.0398425 \,;
#X msg 64 253 name stringy2 \, mod3d 0 \, mod3c 0 \, mod3b 0.197244
\, mod3a 0 \, mod2d 0 \, mod2c 0 \, mod2b 0 \, mod2a 0 \, mod1d 0.220472
\, mod1c 0.00787402 \, mod1b 0.582677 \, mod1a 0.590551 \, osc3d 0
\, osc3c 0 \, osc3b 0.472441 \, osc3a 0.866142 \, osc2d 0.527559 \,
osc2c 0.409449 \, osc2b 0.771654 \, osc2a 0.015748 \, osc1d 0.889764
\, osc1c 0.0929921 \, osc1b 0.897638 \, osc1a 0 \, env3r 0.0393701
\, env3s 0.244094 \, env3d 0.0708661 \, env3a 0.0708661 \, env2r 0.0244882
\, env2s 0.307087 \, env2d 0.0787402 \, env2a 0.212598 \, env1r 0.0174016
\, env1s 0.425197 \, env1d 0.0559055 \, env1a 0.0555906 \,;
#X msg 82 254 name detrum \, mod3d 0 \, mod3c 0 \, mod3b 0.197244 \,
mod3a 0 \, mod2d 0 \, mod2c 0 \, mod2b 0 \, mod2a 0 \, mod1d 0 \, mod1c
0.23622 \, mod1b 0.023622 \, mod1a 0 \, osc3d 0 \, osc3c 0 \, osc3b
0.472441 \, osc3a 1 \, osc2d 0.291339 \, osc2c 0.826772 \, osc2b 0.669291
\, osc2a 0.015748 \, osc1d 0.677165 \, osc1c 0.982756 \, osc1b 0.527559
\, osc1a 0 \, env3r 0.015748 \, env3s 0.244094 \, env3d 0.0708661 \,
env3a 0.125984 \, env2r 0.00874016 \, env2s 0.0314961 \, env2d 0.0787402
\, env2a 0.0472441 \, env1r 0.0174016 \, env1s 0.385827 \, env1d 0.0559055
\, env1a 0.0555906 \,;
#X msg 91 252 name brassens \, mod3d 0 \, mod3c 0 \, mod3b 0.197244
\, mod3a 0 \, mod2d 0 \, mod2c 0 \, mod2b 0 \, mod2a 0 \, mod1d 0 \,
mod1c 0.023622 \, mod1b 0.811024 \, mod1a 0.015748 \, osc3d 0 \, osc3c
0 \, osc3b 0.76378 \, osc3a 0.204724 \, osc2d 0.677165 \, osc2c 0.826772
\, osc2b 0.299213 \, osc2a 0.015748 \, osc1d 0.677165 \, osc1c 0.982756
\, osc1b 0.15748 \, osc1a 0 \, env3r 0.015748 \, env3s 0.244094 \,
env3d 0.0708661 \, env3a 0.125984 \, env2r 0.00874016 \, env2s 0.0314961
\, env2d 0.0787402 \, env2a 0.0314961 \, env1r 0.0174016 \, env1s 0.385827
\, env1d 0.0559055 \, env1a 0.0398425 \,;
#X msg 104 254 name piano \, mod3d 0 \, mod3c 0 \, mod3b 0.197244 \,
mod3a 0 \, mod2d 0 \, mod2c 0 \, mod2b 0 \, mod2a 0 \, mod1d 0 \, mod1c
0.0102362 \, mod1b 0.000551181 \, mod1a 0.000629921 \, osc3d 0 \, osc3c
0 \, osc3b 0.598425 \, osc3a 0.543307 \, osc2d 0.834646 \, osc2c 0.393701
\, osc2b 0.299213 \, osc2a 0.015748 \, osc1d 0.559055 \, osc1c 0.818898
\, osc1b 0.622047 \, osc1a 1 \, env3r 0.0787402 \, env3s 0.88189 \,
env3d 0.0551181 \, env3a 0 \, env2r 0.386693 \, env2s 0.543307 \, env2d
0.0472441 \, env2a 0 \, env1r 0.26937 \, env1s 0.133858 \, env1d 0.0952756
\, env1a 0.00110236 \,;
#X msg 117 255 name organ1 \, mod3d 0 \, mod3c 0 \, mod3b 0.827165
\, mod3a 0 \, mod2d 0 \, mod2c 0 \, mod2b 0 \, mod2a 0 \, mod1d 0 \,
mod1c 0.0417323 \, mod1b 0.969055 \, mod1a 0.929764 \, osc3d 0 \, osc3c
0 \, osc3b 1 \, osc3a 0.543307 \, osc2d 0.283465 \, osc2c 0.125984
\, osc2b 0.511811 \, osc2a 0.00787402 \, osc1d 0.629921 \, osc1c 0.0629921
\, osc1b 0.645669 \, osc1a 0 \, env3r 0.0314961 \, env3s 0.88189 \,
env3d 0.0551181 \, env3a 0 \, env2r 0.0559843 \, env2s 0.503937 \,
env2d 0.00787402 \, env2a 0 \, env1r 0.0252756 \, env1s 1 \, env1d
0.0244094 \, env1a 0.00110236 \,;
#X msg 140 255 name organ2 \, mod3d 0 \, mod3c 0 \, mod3b 0.173622
\, mod3a 0 \, mod2d 0 \, mod2c 0 \, mod2b 0 \, mod2a 0 \, mod1d 0 \,
mod1c 0.159843 \, mod1b 0.929685 \, mod1a 0.890394 \, osc3d 0 \, osc3c
0 \, osc3b 0.692913 \, osc3a 0.826772 \, osc2d 0.299213 \, osc2c 0.448819
\, osc2b 0.228346 \, osc2a 0.00787402 \, osc1d 0.629921 \, osc1c 0.0629921
\, osc1b 0.472441 \, osc1a 0 \, env3r 0.0314961 \, env3s 0.614173 \,
env3d 0.00787402 \, env3a 0 \, env2r 0.0559843 \, env2s 0.503937 \,
env2d 0.00787402 \, env2a 0 \, env1r 0.0252756 \, env1s 1 \, env1d
0.0244094 \, env1a 0.00110236 \,;
#X msg 150 255 name oboe \, mod3d 0 \, mod3c 0 \, mod3b 0.583071 \,
mod3a 0 \, mod2d 0 \, mod2c 0 \, mod2b 0 \, mod2a 0 \, mod1d 0.464567
\, mod1c 0.0629921 \, mod1b 0.574803 \, mod1a 0.637795 \, osc3d 0 \,
osc3c 0 \, osc3b 0.692913 \, osc3a 0.826772 \, osc2d 0.19685 \, osc2c
0.110236 \, osc2b 0.866142 \, osc2a 0.0708661 \, osc1d 0.433071 \,
osc1c 0.0629921 \, osc1b 0.834646 \, osc1a 1 \, env3r 0.141732 \, env3s
0.535433 \, env3d 0.354331 \, env3a 0.000314961 \, env2r 0.441811 \,
env2s 0.503937 \, env2d 0.338583 \, env2a 0.700787 \, env1r 0.0331496
\, env1s 1 \, env1d 0.0244094 \, env1a 0.0798425 \,;
#X msg 158 256 name seq1 \, mod3d 0 \, mod3c 0 \, mod3b 0.583071 \,
mod3a 0 \, mod2d 0 \, mod2c 0 \, mod2b 0 \, mod2a 0 \, mod1d 0.464567
\, mod1c 0.0629921 \, mod1b 0.574803 \, mod1a 0.637795 \, osc3d 0 \,
osc3c 0 \, osc3b 0.692913 \, osc3a 0.606299 \, osc2d 0.283465 \, osc2c
0.11811 \, osc2b 0.377953 \, osc2a 0.0472441 \, osc1d 0.409449 \, osc1c
0.102362 \, osc1b 0.653543 \, osc1a 0.0314961 \, env3r 0.0314961 \,
env3s 1 \, env3d 1 \, env3a 0.023937 \, env2r 0.023622 \, env2s 1 \,
env2d 1 \, env2a 0 \, env1r 0.0331496 \, env1s 0 \, env1d 0.0401575
\, env1a 0 \,;
#X obj 91 52 sel 0 1 2 3 4 5 6 7 8 9 10 11 12 13 14;
#X msg 171 403 name fatbass \, mod3d 0 \, mod3c 0 \, mod3b 0.34685
\, mod3a 0 \, mod2d 0 \, mod2c 0 \, mod2b 0 \, mod2a 0 \, mod1d 0 \,
mod1c 0.0629921 \, mod1b 0.732283 \, mod1a 0.76378 \, osc3d 0 \, osc3c
0 \, osc3b 0.692913 \, osc3a 0.606299 \, osc2d 0.283465 \, osc2c 0.566929
\, osc2b 0.283465 \, osc2a 0.0472441 \, osc1d 0.409449 \, osc1c 0.527559
\, osc1b 0.653543 \, osc1a 0.0314961 \, env3r 0.0314961 \, env3s 1
\, env3d 1 \, env3a 0.023937 \, env2r 0.023622 \, env2s 1 \, env2d
1 \, env2a 0 \, env1r 0.0331496 \, env1s 0 \, env1d 0.0637795 \, env1a
0.000708661 \,;
#X connect 0 0 23 0;
#X connect 2 0 1 0;
#X connect 4 0 2 0;
#X connect 4 1 3 0;
#X connect 5 0 9 0;
#X connect 8 0 4 0;
#X connect 10 0 4 0;
#X connect 11 0 4 0;
#X connect 12 0 4 0;
#X connect 13 0 4 0;
#X connect 14 0 4 0;
#X connect 15 0 4 0;
#X connect 16 0 4 0;
#X connect 17 0 4 0;
#X connect 18 0 4 0;
#X connect 19 0 4 0;
#X connect 20 0 4 0;
#X connect 21 0 4 0;
#X connect 22 0 4 0;
#X connect 23 0 8 0;
#X connect 23 1 10 0;
#X connect 23 2 11 0;
#X connect 23 3 12 0;
#X connect 23 4 13 0;
#X connect 23 5 14 0;
#X connect 23 6 15 0;
#X connect 23 7 16 0;
#X connect 23 8 17 0;
#X connect 23 9 18 0;
#X connect 23 10 19 0;
#X connect 23 11 20 0;
#X connect 23 12 21 0;
#X connect 23 13 22 0;
#X connect 23 14 24 0;
#X connect 24 0 4 0;
#X restore 153 577 pd chip_presets;
#X symbolatom 153 602 10 0 0 0 - - -, f 10;
#X obj 34 472 pack f f;
#X obj 825 120 mod 8;
#X obj 825 336 select 0;
#X obj 826 471 pack f f;
#X msg 1168 165 72 0 75 0 72 0 65 77;
#X obj 826 445 makenote 127 250;
#X obj 152 493 loadbang;
#X msg 152 516 10;
#X obj 945 294 loadbang;
#X obj 1168 143 loadbang;
#X obj 374 126 loadbang;
#X text 59 5 Demarrer !;
#X text 104 28 un bang toutes les 500 ms;
#X text 90 56 on compte de 1 en 1;
#X text 40 110 on fait boucler le compteur entre 0 et 7;
#X text 39 124 pour simuler une mesure à 8 temps;
#X text 380 203 comment;
#X text 386 189 on fixe un motif rythmique et harmonique;
#X text 383 205 en utilisant le formalisme Midi;
#X text 384 221 0 = aucune note;
#X text 383 238 60 = Do;
#X text 371 107 loadbang envoi un bang au chargement du patch cela
;
#X text 436 127 permet d'initialiser certaines valeurs;
#X text 97 293 on filtre les 0;
#X text 101 322 on créer une note avec la valeur;
#X text 100 338 stockée dans le séquenceur grace;
#X text 100 354 à [makenote] \, les deux autres;
#X text 116 389 - la puissance de la note;
#X text 117 409 - la durée de la note;
#X text 276 628 un synthé polyphonique avec 5 voix;
#X text 226 493 Charger un preset spécifique au démarrage;
#X symbolatom 945 420 20 0 0 0 - - -, f 20;
#X obj 945 368 nbx 3 20 0 256 0 0 empty empty empty 0 -8 0 16 -260097
-262144 -1 0 256;
#N canvas 0 50 1108 693 ejun_presets 0;
#X obj 91 26 inlet;
#X obj 83 653 outlet name;
#X obj 83 630 symbol;
#X obj 166 652 outlet parms;
#X obj 83 582 route name;
#X obj 675 75 loadbang;
#X text 670 21 set up the interface to be human readable and show which
controls are actually used;
#X text 672 51 Requires modified [g-hsl];
#X obj 90 52 sel 0 1 2 3 4 5 6 7 8 9 10;
#X msg 671 104 env1a color 128 \, env1a label AMP-ATTACK \, env1d color
128 \, env1d label AMP-DECAY \, env1r color 128 \, env1r label AMP-REL
\, env1s color 128 \, env1s label AMP-SUS \, env2a color 128 \, env2a
label FILT-ATTACK \, env2d color 128 \, env2d label FILT-DECAY \, env2r
color 128 \, env2r label FILT-REL \, env2s color 128 \, env2s label
FILT-SUS \, env3a color 128 \, env3a label MOD-ATTACK \, env3d color
128 \, env3d label MOD-DECAY \, env3r color 128 \, env3r label MOD-REL
\, env3s color 128 \, env3s label MOD-SUS \, mod1a color 128 \, mod1a
label LFO-FREQ \, mod1b color 128 \, mod1b label VIB-AMT \, mod1c color
128 \, mod1c label VIB-ONSET \, mod1d color 128 \, mod1d label LFO-PWM
\, mod2a color 128 \, mod2a label CUTOFF \, mod2b color 128 \, mod2b
label RESON \, mod2c color 128 \, mod2c label ENVAMT \, mod2d color
128 \, mod2d label PWM-ENV-LFO \, mod3a color 128 \, mod3a label HIGHPASS
\, mod3b color 128 \, mod3b label VOLUME \, mod3c color 2 \, mod3c
label _ \, mod3d color 2 \, mod3d label _ \, osc1a color 128 \, osc1a
label OSC1-COARSE \, osc1b color 128 \, osc1b label MIX12 \, osc1c
color 2 \, osc1c label _ \, osc1d color 2 \, osc1d label _ \, osc2a
color 128 \, osc2a label OSC2-COARSE \, osc2b color 128 \, osc2b label
MIX23 osc2c color 128 \, osc2c label DETENV \, osc2d color 128 \, osc2d
label PWNENV \, osc3a color 128 \, osc3a label OSC3-FREQ \, osc3b color
2 \, osc3b label _ \, osc3c color 2 \, osc3c label _ \, osc3d color
2 \, osc3d label _;
#X msg 73 125 name raveybrass \, mod3d 0.00787402 \, mod3c 0.015748
\, mod3b 0.23622 \, mod3a 0.0393701 \, mod2d 0.102362 \, mod2c 0.19685
\, mod2b 0.0130709 \, mod2a 0.0393701 \, mod1d 0.173228 \, mod1c 0
\, mod1b 0 \, mod1a 0.566929 \, osc3d 0.023622 \, osc3c 0.00787402
\, osc3b 0.015748 \, osc3a 0.425354 \, osc2d 0.362205 \, osc2c 0.0866142
\, osc2b 0.503937 \, osc2a 0.247008 \, osc1d 0.574803 \, osc1c 0.181102
\, osc1b 0.464567 \, osc1a 0 \, env3r 0 \, env3s 0 \, env3d 0.0393701
\, env3a 0 \, env2r 0.00787402 \, env2s 0.0629921 \, env2d 0.015748
\, env2a 0.023622 \, env1r 0.00417323 \, env1s 0.401575 \, env1d 0.0708661
\, env1a 0.012126 \,;
#X msg 92 134 name shortbass \, mod3d 0.00787402 \, mod3c 0.015748
\, mod3b 0.220472 \, mod3a 0.0124409 \, mod2d 0.102362 \, mod2c 0.181102
\, mod2b 0.107559 \, mod2a 0.00787402 \, mod1d 0.173228 \, mod1c 0
\, mod1b 0 \, mod1a 0.566929 \, osc3d 0.023622 \, osc3c 0.00787402
\, osc3b 0.015748 \, osc3a 0 \, osc2d 0.362205 \, osc2c 0.204724 \,
osc2b 0.409449 \, osc2a 0.247008 \, osc1d 0.574803 \, osc1c 0.181102
\, osc1b 0 \, osc1a 0 \, env3r 0.00787402 \, env3s 0 \, env3d 0.023622
\, env3a 0.000629921 \, env2r 0.00787402 \, env2s 0.0472441 \, env2d
0.0340945 \, env2a 0.00787402 \, env1r 0.00417323 \, env1s 0.401575
\, env1d 0.0708661 \, env1a 0.000708661 \,;
#X msg 117 158 name pwmchorus \, mod3d 0.00787402 \, mod3c 0.015748
\, mod3b 0.11811 \, mod3a 0.0124409 \, mod2d 0 \, mod2c 0 \, mod2b
0.107559 \, mod2a 0.377953 \, mod1d 0.472441 \, mod1c 0 \, mod1b 0
\, mod1a 0.480315 \, osc3d 0.023622 \, osc3c 0.00787402 \, osc3b 0.015748
\, osc3a 0.425197 \, osc2d 0.362205 \, osc2c 0 \, osc2b 0.440945 \,
osc2a 0.239134 \, osc1d 0.574803 \, osc1c 0.181102 \, osc1b 1 \, osc1a
0 \, env3r 0.00787402 \, env3s 0.409449 \, env3d 0.0314961 \, env3a
0.000629921 \, env2r 0.00787402 \, env2s 0.023622 \, env2d 0.0262205
\, env2a 0 \, env1r 0.0011811 \, env1s 0.858268 \, env1d 0 \, env1a
0.00173228 \,;
#X msg 137 174 name screamerpad \, mod3d 0.00787402 \, mod3c 0.015748
\, mod3b 0.141732 \, mod3a 0.11811 \, mod2d 0.291339 \, mod2c 0 \,
mod2b 0.0314961 \, mod2a 0.322835 \, mod1d 0.0944882 \, mod1c 0.19685
\, mod1b 0.606299 \, mod1a 0.622047 \, osc3d 0.023622 \, osc3c 0.00787402
\, osc3b 0.015748 \, osc3a 0.669291 \, osc2d 0.401575 \, osc2c 0.102362
\, osc2b 0.330709 \, osc2a 0.501102 \, osc1d 0.574803 \, osc1c 0.181102
\, osc1b 0.401575 \, osc1a 1 \, env3r 0.00787402 \, env3s 0.409449
\, env3d 0.110236 \, env3a 0.000629921 \, env2r 0.00787402 \, env2s
0.023622 \, env2d 0.0262205 \, env2a 0 \, env1r 0.0011811 \, env1s
0.858268 \, env1d 0 \, env1a 0.00173228 \,;
#X msg 157 184 name moogybass \, mod3d 0.00787402 \, mod3c 0.015748
\, mod3b 0.606299 \, mod3a 0.00456693 \, mod2d 0.811024 \, mod2c 0.181102
\, mod2b 0.54063 \, mod2a 0.0314961 \, mod1d 0.0787402 \, mod1c 0 \,
mod1b 0 \, mod1a 0.566929 \, osc3d 0.023622 \, osc3c 0.00787402 \,
osc3b 0.015748 \, osc3a 0.00102362 \, osc2d 0.669291 \, osc2c 0.425197
\, osc2b 0.409449 \, osc2a 0.239134 \, osc1d 0.574803 \, osc1c 0.181102
\, osc1b 0 \, osc1a 0 \, env3r 0.00787402 \, env3s 0 \, env3d 0.0393701
\, env3a 0 \, env2r 0.00787402 \, env2s 0.0472441 \, env2d 0.0498425
\, env2a 0.00787402 \, env1r 0.00417323 \, env1s 0.401575 \, env1d
0.354331 \, env1a 0.000708661 \,;
#X msg 170 195 name drybass \, mod3d 0.00787402 \, mod3c 0.015748 \,
mod3b 0.377953 \, mod3a 0.00787402 \, mod2d 0.370079 \, mod2c 0.181102
\, mod2b 0 \, mod2a 0.00787402 \, mod1d 0.0551181 \, mod1c 0 \, mod1b
0 \, mod1a 0.566929 \, osc3d 0.023622 \, osc3c 0.00787402 \, osc3b
0.015748 \, osc3a 0.166378 \, osc2d 0.023622 \, osc2c 0.0472441 \,
osc2b 0.551181 \, osc2a 0.396614 \, osc1d 0.574803 \, osc1c 0.181102
\, osc1b 0.322835 \, osc1a 0 \, env3r 0 \, env3s 0.0314961 \, env3d
0.606299 \, env3a 0 \, env2r 0.00787402 \, env2s 0.0472441 \, env2d
0.0498425 \, env2a 0 \, env1r 0.00417323 \, env1s 0 \, env1d 0.125984
\, env1a 0 \,;
#X msg 179 200 name dullstring \, mod3d 0.00787402 \, mod3c 0.015748
\, mod3b 0.401575 \, mod3a 0.015748 \, mod2d 0.740157 \, mod2c 0.015748
\, mod2b 0.0314961 \, mod2a 0.0393701 \, mod1d 0.0787402 \, mod1c 0.110236
\, mod1b 0.322835 \, mod1a 0.448819 \, osc3d 0.023622 \, osc3c 0.00787402
\, osc3b 0.015748 \, osc3a 0.167323 \, osc2d 0.0314961 \, osc2c 0 \,
osc2b 0.645669 \, osc2a 0.750945 \, osc1d 0.574803 \, osc1c 0.181102
\, osc1b 0.0314961 \, osc1a 0.472441 \, env3r 0.110236 \, env3s 0.0314961
\, env3d 0.606299 \, env3a 0.307087 \, env2r 0.322835 \, env2s 0.377953
\, env2d 0.419921 \, env2a 0.543307 \, env1r 0.0356693 \, env1s 0.472441
\, env1d 0.307087 \, env1a 0.338583 \,;
#X msg 193 219 name orchy \, mod3d 0.00787402 \, mod3c 0.015748 \,
mod3b 0.401575 \, mod3a 0.015748 \, mod2d 0.740157 \, mod2c 0.015748
\, mod2b 0.0314961 \, mod2a 0.0393701 \, mod1d 0 \, mod1c 0.102362
\, mod1b 0.322835 \, mod1a 0.496063 \, osc3d 0.023622 \, osc3c 0.00787402
\, osc3b 0.015748 \, osc3a 0.238189 \, osc2d 0 \, osc2c 0 \, osc2b
0.0866142 \, osc2a 0.747717 \, osc1d 0.574803 \, osc1c 0.181102 \,
osc1b 0.80315 \, osc1a 0.913386 \, env3r 0.110236 \, env3s 0.0314961
\, env3d 0.606299 \, env3a 0.307087 \, env2r 0.322835 \, env2s 0.692913
\, env2d 0.278189 \, env2a 0.173228 \, env1r 0.0356693 \, env1s 0.472441
\, env1d 0.23622 \, env1a 0.133858 \,;
#X connect 0 0 8 0;
#X connect 2 0 1 0;
#X connect 4 0 2 0;
#X connect 4 1 3 0;
#X connect 5 0 9 0;
#X connect 8 0 10 0;
#X connect 8 1 11 0;
#X connect 8 2 12 0;
#X connect 8 3 13 0;
#X connect 8 4 14 0;
#X connect 8 5 15 0;
#X connect 8 6 16 0;
#X connect 8 7 17 0;
#X connect 9 0 3 0;
#X connect 10 0 4 0;
#X connect 11 0 4 0;
#X connect 12 0 4 0;
#X connect 13 0 4 0;
#X connect 14 0 4 0;
#X connect 15 0 4 0;
#X connect 16 0 4 0;
#X connect 17 0 4 0;
#X restore 945 397 pd ejun_presets;
#X obj 945 343 hradio 15 1 0 10 empty empty empty 0 -8 0 10 -262144
-1 -1 0;
#X obj 826 496 rj/u_makepoly 5 1 s_ejun \$0-inst;
#X msg 945 317 4;
#X obj 31 179 rj/g_pattern32 pattern1 128;
#X obj 825 188 rj/g_pattern32 pattern2 128;
#X text 805 7 Pour créer un objet [rj/g_pattern32] il faut donner
deux arguments :;
#X text 832 42 - le premier argument est un nom de pattern qui doit
être unique dans tout le programme;
#X text 833 74 - le second est la plage de valeurs de sortie;
#X text 100 371 entrées ou arguments permettent de spécifier;
#X text 832 529 Pour créer un synthétiseur polyphoneique il faut
créer un objet [rj/u_makepoly] il faut donner 4 arguments :;
#X text 845 567 - le nombre de voix;
#X text 845 585 - parametre de voice stealing => mettre 1;
#X text 846 673 - un identifiant unique : vous pouvez utiliser "\$0-inst"
à chaque fois;
#X text 606 736 voice stealing = 1 signifie que si toutes les voix
sont occupées et qu'une nouvelle note doit être jouée \, la voix
la plus ancienne sera "volée" et donc utilisée pour jouer la nouvelle
note. Si ce paramètre vaut 0 le nouvelle note sera ignorée.;
#X text 845 610 - le nom du synthétiseur monophonique à transformer
en synthétiseur polyphonique \, s_chip \, s_cwc \, s_czz \, s_ejun
\, s_hstr \, s_noiz \, s_spad;
#X obj 351 749 dac~;
#X floatatom 57 88 5 0 0 0 - - -, f 5;
#X floatatom 88 151 5 0 0 0 - - -, f 5;
#X msg 374 150 60 0 0 0 72 0 60 0;
#X obj 34 444 makenote 127 2500;
#X obj 565 407 rj/s_chip;
#X connect 0 0 1 0;
#X connect 1 0 2 0;
#X connect 2 0 3 0;
#X connect 2 0 4 0;
#X connect 2 0 12 0;
#X connect 2 0 61 0;
#X connect 3 0 2 1;
#X connect 4 0 48 0;
#X connect 4 0 62 0;
#X connect 5 0 60 0;
#X connect 5 0 60 1;
#X connect 6 1 64 0;
#X connect 7 0 9 0;
#X connect 8 0 7 0;
#X connect 9 0 10 0;
#X connect 9 1 5 1;
#X connect 11 0 5 0;
#X connect 12 0 49 0;
#X connect 13 1 16 0;
#X connect 14 0 46 0;
#X connect 15 0 49 1;
#X connect 16 0 14 0;
#X connect 16 1 14 1;
#X connect 17 0 18 0;
#X connect 18 0 8 0;
#X connect 19 0 47 0;
#X connect 20 0 15 0;
#X connect 21 0 63 0;
#X connect 43 0 44 0;
#X connect 44 0 42 0;
#X connect 44 1 46 1;
#X connect 45 0 43 0;
#X connect 46 0 60 0;
#X connect 46 0 60 1;
#X connect 47 0 45 0;
#X connect 48 0 6 0;
#X connect 49 0 13 0;
#X connect 63 0 48 1;
#X connect 64 0 11 0;
#X connect 64 1 11 1;
